<mxfile host="Electron" modified="2024-06-26T09:51:14.760Z" agent="Mozilla/5.0 (Windows NT 10.0; Win64; x64) AppleWebKit/537.36 (KHTML, like Gecko) draw.io/24.5.3 Chrome/124.0.6367.207 Electron/30.0.6 Safari/537.36" etag="aPNsmVTBYI78OObsaSae" version="24.5.3" type="device">
  <diagram name="第 1 页" id="4W-yy3hXio1PYK0izE2a">
    <mxGraphModel dx="888" dy="614" grid="1" gridSize="10" guides="1" tooltips="1" connect="1" arrows="1" fold="1" page="1" pageScale="1" pageWidth="827" pageHeight="1169" math="0" shadow="0">
      <root>
        <mxCell id="0" />
        <mxCell id="1" parent="0" />
        <mxCell id="IDgCffcBHrwTDVdJMU3E-1" value="盒子模型" style="ellipse;whiteSpace=wrap;html=1;" vertex="1" parent="1">
          <mxGeometry x="20" y="30" width="120" height="60" as="geometry" />
        </mxCell>
        <mxCell id="IDgCffcBHrwTDVdJMU3E-2" value="" style="shape=image;verticalLabelPosition=bottom;labelBackgroundColor=default;verticalAlign=top;aspect=fixed;imageAspect=0;image=data:image/png,iVBORw0KGgoAAAANSUhEUgAAAnYAAAFlCAYAAABm/qVRAAAgAElEQVR4Aey9ebAkxX3vO0i2QLbjeguHXzisuLKMjJ//es/PEX4hsGAGCSQY0AyLBBIIkGRd32ATWq7eDVtCgADLgBaEQIhlBmaGYZZzzqwMy8CwDDDL2bc5y+z7WfqsvW/fF9+szu7qOlXd1d3V3dXn/M7Eb7Iqqyor85e/zPz0L6uyFoUicVDCkQTC4aQh3FZxMYQjOQmGoyhHJqZmQInEEghFYnlpWPfLSd/tNbxXToxyG+U3x+dv67Rnw1Fo0XF+DKnnqZngHD2XktdwlLrJ6YH7Os6cjvkcc3wp27OhCCjBsBEy/9Ozoayt6HuY86DjvAyN9GOYnJ5V9+e+XTnc3TOKUMRJqFceY5nDLoTn5uqi0m27MpUbV2leqnm9mzK5vb+2fZ5vTndyZlbZC49HYkmEo0mEIuzjdPtxsgGnePf1zHzQVienQ5gKxhEIJRGIphGIpTFhkclYGlOxNKbjaUwlDJmMpzFBiWWu4bHMccbrdBjHcyd5XTyNWVU+p/zrePflKF4HOs36huFoTPWBqq6jMUTDEURDYUQ8kHAogpDLsbW4vmIIRuIIRhJGGI0haJZIDLPRjESMMc1s0+VuG324Mx9w7Cw37ULXFUvXetwYwyOY5XiTJ0b+WL8cP8cnJtW4VKxcOm9GujlGMO8Hw+w3OJ7k9x/6Wo59hhSvj/x0czrVfdTo+ARmgmEsCkWSCFPCKUTCaYSCCYRDcUTCcUQiMUTCMRUS8HIZySXoJq4Q2BnXs2ClpVnO+XaNgulYO2wdlxfPBhGJqkZC5ZZz/1pcUw7YabiyM2J9TOdd69Du3JyBakMtHs6GwqCYwW4mGEI0bvwI4P1otFr0/b0OjfRzYMf76zKbQ+/uS92Eigj1YtinV/c1l8W6revavm7n2rxXeapGOtay2e2Xel9rGgZYzSrbzAc7M9x5CTn5afH+UzMhzASjmJoNY2o2giluh2J5Mh2KwyxTobhxPBjDZDCaEeManjel4o20poMxTAejmA5FMaP6vfw8GDrUP5Ltjs2PON3/qDAcRSTkAuyCIUQyoiCQ/VoobAAh40PGPtMKh6Ku4M6NzRLsZqNaTCCngU6HHM9MUGG1b/f7EcywH1dpWfsJ8xhgPVbJvjldt9vF78f6LQfscrpiXvR9dL7ITlp4TMfr88yhPmZOx3xcb+efx3zTNrJgF42lEY8BoVAS4VASszMRBINRA+wIdxkxwE4nphN3FxYHO3fp5BTm1fkRzAaNwdPoJOmtCSIYCmdAwhjcCXIhKi5myCwhL1t5XuXFm3Tcgp15ECfhmwdzgha9ZtQFw6mZWUzPBFXDDcfiCIYiRtwsBxUDzHSHU04d6XszZP69Bru8TtkEiXPjDbBjmTRYWsujy1l5yLbkH48ddU+9z6g6DeXZg1UH3K+8/NUd8O3ybI0rtQzW6+sNdmybtFU1kIfZJ5UuM6EctPF65Vmgx8chLasOrPul6rRRztd9hcpvSINdxMZjZwAboS08G0RoZlZJOBhEcGYG0TC9fCEEZ2bBOMPj5zXYFYA5DXUMFdgZP6qt9VjKPoGOYDej+jNvxrFS7u/luaznysCuPuVnvmmbWbCLRFKIhtOIKo9dCrFoWnnsDK9dEpGwIZyqLVeB/gW7KILBEKampjE7O5uVmdlZNV0WjEQQiccRjsUwzcYYjWM6HEGA03UZICxXJ9W6rhSw40BuDOg5sOOUQCgcxvT0NGZmZjA9PYOp6WlMz8yq+leAz+tM+poNBsGpCpaJxlVq2YqBXSWdv+6Qi4U63wZYhtVUsF05KslL/rX+Ajv+mGGdss4Zcp/5Zb0a+Wbd5nda+eXR5/kjtKs7a1yp+bdeX0+wY17UDy7+EFU/Mo0f3aEwp/XmivaI80eZ+bgRbwzu5ni9rb0L3De2823AqpNSddpI5+uyhhTYRREN5YNdLBxBLBJFLGKEoUw/GeR4MhvE7NQ0zp4+jfGxMUxPTSGUBbuwxx67OoBd2MljV9hetE79ElYP7Nh+qqeLOWA3NTmLkydGcOzYGZw4PoLTp8YxNRHKTMcS+jhFm1LTtYXniZ0zrcEuavOMXTULa5d2riOJY3I6iB2v7cSateuwdt0GbNqyDVu2vYLmLVvRNzCImWAQ/UODGDp8GNtfex0DBw/h9MiY8mLZpe2HOLdgx05ae+p0SN3QM7dvXxuamjcrfaxdvxEbN23G9h2v4/DhExgdncD2V15XxzZv3Y6WzVvx2hs7MTIWUF7OcnRggF3uGTurxy5XZ+VBgxuo4z2Yj9qAHSHJP2DHsh87cRLbXnkVG5s3qbC9sxtnRsYwfOgITp4+g7FAAEePn0BgchonTp3G0MHDmWc5/em9c2OHpdqVNc36g53hUbfmy2mf9q3F6Rwv4kvVayOcb9aLHdgR6oLTMzjQ24fujk70dffgzTfeQEtTM157ZQcGDxzAscNHsLllE15atRprVq3C3g8/xEQggFl69YJhhF0M/G50FTQ/R2f20Fm3PZqKVR67iPHMmllPjbbNtkH9zguP3bZtO/DEE7/FuvUtWPNSE7ZsfR0nTo4hkQSCYT4MnMpIssgDgA5gF4mqwZIDZiTz3FS9Klw3CmOgT+Ds2ATWbmjChuYWfO8HP8TTzz6HF19aq+TNt9/B8ZMnsXFTCzZsbsHDjz6KB3/2X9jY3KKmrOpVhmL3dQ92UcNbx2lX5bmjhyaKcDiC48dOoLfvAN59/0O8sOYldPb04uChI5gMzODYkZP49eNPYsXKVVj54mo889wKPPv8Shw5dkJNXxbL39zjHGwMj0EOrPKfsdP1Vs2Q+crd39ljNzf/DnZfsJPW3o/aTsU65T0Si+PEqVPYtuNVrN/YjK3bd6Ctowsf7NmHt955F/0DQ9i7v03FnR0dR9+BQbz6+k7sa23HqTMjiMbZT5QH3dW6zqms5vhS722+ltuNAnYa5owfcIZ3nnHm8uhzCoXm8wttl6rXRjlfl9kKdqHZWSTicQwNDmLFc8/hF4/9HGteXIVVK1/A47/8Jba0bEJfTy/2frgH7ftb0bpvH555+mm8tXMnAuPjoGcvFHT3AoUbXZUGduX0X/nX8LEkPn/p18eTdL0VCmdCETULR/1OzQYxZnp5ohHKZfbYcTZx0arVq7Fy9Wr0DR5CW/cAho+exkw4idlYCjPRpJLZaNJ4w6bgYGVUNpVgrmjO4wemZxCYmkGYD6TzV0MdjEBVDqcJObUUi6u8nBkLoGXrdqxYtRqPP/kkVq5ehZVrVuOtd9/F7j178OH+Vvz2uWfx8M8fxfOrXsRD//VfePLpp/D2u+/4Fu5KBzs+SzervJOzfCYkFEQiGUcimcTJM2fwzgfvYzYSRjqVRjKexImjx/HcMyuwcuUqvLDqJby4ei1WrVmrvDk0rkKNxzimoSYXqhcoLG/F6mfc3HRkpZ7DfFivYRwHtWIeu+Lly7QDy8Bpvs4YPN1AHc+Zm1dr3t3s6/JZB27Gs96OHDuOHa+9oeT1nW8pcCO87W1tw559+9G8yfDgcv+Nt3YpzzbB7vDR41ldmsvoJk/VPMecF6ftUu9vTacRwU5757UdmMuk45xC87nFtkvVbSOcr8s8F+yCiEejOHbkKNatfRkvrFiBLZs2YfuWrdj5+ht4842deGXrNrywYiU2rFuPF1e+gN88/mvltdu1802cPnUKbt+MdaMnt2A3k3krVo/H5YaEOivYlZtWPa8j3JEPJmeDGJ2YBPd1ueqZLzf3JtOw3kcCEwpQF23etgX3/vQ+PPG7Z7BmQwueXrkGE8EYpiIJzEYTmOFzZeoNGz47pQfjfGLXBs+QmaDBmGV8egaUUJxpxtQxnme+rtrb6tXmaBSz0SiCMb4xFMWZsTE1zbi+uQUvNzVh7cYN2LRtC9asW4sdO3fihbXr0LRtO1aufQk/uv8+PPizh7HixRVo2dyceZuxtmVwoyP3YKc9ZfwFH0SQz8nxgd9QEOHwLGYjsxg6chA73nwD41OTCIdDCM3O4NDwEJ595lm8uIpAtx6r1qzDC6vW4PDRY47PpRV6NkfZC6eIFFgZ3l3+YuJLGuZOjEary2+Od7Otr9MhBy69bQ4Z7wXYOQ2MuXjjhZPcW7F2kMc3ZisDO5ZNl5XwrF6O4AsSlmcrqcPu3j6seNHwwq5+6WXltdv1znvKa3foyDG8/+Fe/O7Z59VULcPHn3gSb739jgI7rcNc+XL6LVQ/+jodFjq31GM6zUJhpWk2JtgZ9W/YgGFfhXRkPmau32Lb5usKb/vL01vIJnQ5+BxyJJR5xi4YUlOwiWgM7a2tePKJJ/DzRx5V062vv/oqPti9W0259nZ145Vt2/He2+9g6+Yt2PXmW3hn1y7s2L4dJ0+cRJQebxdjYqH86WOlgJ15nK54W4//GQaYtnBAxelXMb2pcAQU8snEbBAjE5PqeXrmWTOLn/NvME0MZwMTmAqFsaizuwvPvbgC77y/G3tb27Fz124k0sB0yFhmQnnYCEMUF4anBmoNd5lQgx09dtk1dFyk5eZ+bs+Z5cOdUUokA3YRnBo9i+2vvYaOnj4Fdi83bcD7ez7AzrffxPbX38ArO3dh/aYteHHtWtx1zz14/DdPYN3G9XjrnbcQJiQ6AILbPHl5ngblUsCO4BCOcAqAD++GEYtFEaN+QvTgTWHg0CBeffMNTM7OYDY4jdmZCRwY6MFTTz+FNWvXY92GzQrsVrywCoMHDzk8Y6cHeYKZfmsvjplwHLNhIzSWUohjJhRTL6bwFxN/gSjYy3QWetv8C0p3ZMVCq571oGQXb4Ad19Fz4320axPGc0z0jJhByro9G+KLK3q5E2/BTpdLl9MIjTed+fwIhW9U6vP4Qszo2Dh6+g6oadbO7l4MDB9U2929/Wht78TWV3ZgQ1MLjp44iV3vvAs+X8mH97k2ZT40zp3qs9aPvq81tJ5X7r413Ur3dT6s6ZjBzljDzrqOXXWhxVyPhfqinB3k26TylJfQh+XSyT2rV1qc8YPGuIZtx+gT+Oy2Xk/VCLlcTG2WjNF1W0rI9hLmMmB8iYLTqDMz6oWJzvZ2NG/ciB3bXwGhjlOwm5qbFczxGTt68ejRW7tmjQpfWr0a27ZswdmzZxHlW40uxkQ3+SwF7AhfIlEFdQS7mWgMgdkgzk5Oqjilm2jMlY4U+JF5ai2Ez1hc5f10YAKTBLs333oLu3a/iy2vbMMDDz6EoydOqTdBZ/hmFR+ujJJiwyq0dmx2+1awI8gpsMtMxSr6zQzWdtdXK242EsJMJJjx2MUwHQ7h5MhprG9pxksbNuDBn/0MLzdtRE9/L7a+sg1vv/8BWrv78dwLq/Hcyhew8oUX8fgTT+CJJ3+DnW/tRDDin7eANPQEM88zssNnB1BYlwSusIK6ID11me1QOISZmWlMTk3g4NFhBXb02E1NT+L0mWNo3rwO997/Yzz8s0fw3POr8OjPf4X7f/ogNm/dpl61NqZjcwOa0XkT0hJKCHRW4Y+ImbAhgZmg+sWkf4FwaRm7X0osc+Hy5Y67GXx0WsZ6TLlrc15qDahzp0Z5rXGP3MBpLBfDae580YMxB1V3y53k7qvz6CZkfjRc6m3mhfcnkBDK9MDOFyL43NzuD/aAIMdn6waHDymge3PXO+CLFK+98aby4r3x5i7lqXvv/Q/VeWMBYyHPfHDNwR3v7Sa/tF03g5abc1zdL1tnhSFFp2XXnqhH/hDgOQQStTBsFlbMNpTbdpN/t+do2zJsr3A5ip2jy1ko1Glou8qv85wnsFi8kQ77J660UEgKLeqa02mhPJuPudUr+zA7CWXfEM8s2p9Zz45vvEbCYXR1dKqXJda9tBav7diB13e8iheeX4G333oLJ48dx4e738ehg4cww1UGpqcxOTGBI4cO4czpMwhxLbuifba7NmIHdnTQaNHOFfarUyJ5Opgmr9BjNzVtwF4J+qmXhzILn9EYTo0HMEGwW716DZo3b1YPSe+km3jHazh5dgSRRBLBaMjk5eK6Nxx8SyNSGhPBbmxyOjcVa/HCaDCpZjgTCYPCKdjZCBfsDOP02AhWrlmFVWtfwvMvvojVa1/Gpi1b8PwLL+C9Pfuwr7MH2199HVu2bsX9D/wUzz6/AoMHD2JgeAiB6WnDRVuHslj1ZNRJRK1LxOcZ6fFSnlabvJk9Xjlo4YsTHBiCOH7yON548w1s3roJL29Yi6ee+R2atmzCth2b8c7uN/DmrtewllPVr76KwcGD2PnmW1i7bj3efm83Jqa5WKuxsLBeJoNAF4ymMBNLY4bPbUYIdtqGNNBFs27vydkQJjlVSLd79jz7baseuJ9fPqPz1wNSwZC64i8f/dyJAhIDfqkn/sgpeH1moWUD2JwHHSMNQh3TdivO6ZkHLvM2B1+uQ6hBUm9rGNFTzswPX4CgV44vSfBN2A/37ceud99TL0cQ+ui9PHX6DFq2bMWmrdtw6swZnD5zVvUZhD6tl/wBvTDc6WsYqnzzLWF6i4uJCwA066HQtjkPhbaZhhPYUT9qYdbMAuZ2NpmN4w9lVy+Z8H60uUISy/5oKJR3t8cK6UkfM9LK/XjJr+8ywC7EF/IoVrgzx5frObdvM67gTj2HzWexo/aSATzDcxdVz8dNTk6jt6cXr76yA2+/tQvvv/ce9n24R70N+85bu9Df26s8d5x6pTePXj3CH714rXv3Y3pyBpEizyjTjmg/CtAYOonl7VerzXFfOVhKgJbGBEA+UkaJZ0K9r0NzvAG5BDt67Ah2BKZSy60gq8ZeUOaR+aZkwW5kdEy90cgHBWOJJI6ePI3xqWkEYxHMRGYwS7iL8CHCCKb55gjXTyoi+R4WY86ayqK7UBtU/jn5z+RV5xjLw3IQJgh2EYxNTWJsckK9KJBIpqAkkUQoGsH4JJ8LDOLUmbM4fvwYTp46hROnzqipp3gqhVCMnqRMmnUOpyMRUKg3Ph8wpcGoQL70YKPgIsK3QKOIxLhA7xQOHj6Ivv4+DA4P4uDhwzhwcAgDB/tw8Gg/Dh8fxuj4CJLJJJLUWSoFrvd3/OxZTNLrF+d0KxdNjahfvaEoX8RJYyYOTPOzRMoDZ7wan9UfbSvMBS652n1IQXf2WIEyFDpHPVOZASfDM6WngRxCuuFN99LXG9OlXLDaeDTBboDXAz+P2f3St4tzSkcPopWGBDvtndNThjok1Gmw430YT8+b4YkJg2++8q0w5pt9AkOeT/snyDDvHOTpMSII8nrq2G6g117BgoDBxyT4wyvKH1/0rNsL+6Finr1S9FYwT5alQezqS3tAVVtSz/9oG7Lvz/ijwTrIMt25osGOP7jsJPdDg3XmthyFznOrt0JpFD+m80roIszpFRfsQwP64pgNGfbmypZM9WbNjy7jXH3n1wEfOzIe29GP71hD2qHxTBy/GMGvMwWDYUwEJjE2Mqq8d1N8q3JqWr0tO8sf24EAxkdHceLYMQwPDWFoYACDBwZwePggAuMBtdxJsalYw85crlFngjttcwRRXXbCIccLjhtT81Y01BHgCgnPI8RFMB2NYiIUwtjMbDaukfQzSk9wOIxFXIg0nYb6thynwaLJtPLWGdOWs6qT5aK8BCF6uowXKvhShbNM0yPmKDEFhs7HC11b/rEZrtEW5kLDMeOzOxz4goSgMManZjE+FVLCt3c5mHMw43Me0UQCyXQSiZQBMtpdzkamPEouPEvFPE8aZL2gfZWWzps1ND98mvVusbPlIqcscxSxRAKpNJBKp5FWAhWm0knE0xHEUoScIKZnZtRq4xP0sNGzkEphirDLHwRRLuYcVlP6XOKGn7eZjiXVtypZ79qrltVLNl8EPONHhG05sudZBk5dTutx5bGkJ1IPKNbpKsZnjjEN8/V5+uHzaBlQdTFdogeQQiE72ELHKz3GQY2gRbizihnsDM+e8bydcQ1BIvN8rWm6m3GEPD5Tx7wZ5xjn6XtZwU7rtmhZ6A2NRjETpe1EDBuiHZlEPRsbNe7LeztJ0XuZymQd+O32dVl5P2vaOg+MV1+j4WDpIGr6yyYNa5q5fe0ttpuyz3g5SyyLXfl0XO6+9p4u63F9XXmhnobVnrlCoQa7Yh5za9ueu6/LoOvNKTSgJ4ypSAjTkWBWptR2SNmo+oHBN8opGbjjCxCJWFx9XYJvyca5fFQwmF2wOB6NIZVMIp1K5SSZQoztLfO92KJw52BfZrvTU606ZHnsyqrKmfH0aI/P/Ar54mfChfA8DXdRTIYjSkr11unz66FD3pv51uEigkoskUYolsbkLAGOLuiEegYtkmSHa3iCCHU8h0ugTLsQvlXrJJNh0rPz8Wocm46wTAS7jOdRhfycDuPowUtgOpQEP7FjTJHxCwzsgNiJBhX8GAMV3/zNTCESUjwSAk/hXxVujvMhT/4Ss4pdPo1pdaNj5vOCBuTQc2s8CB5TUwPRaAJhPj+kpuVnEIzwmSJ6aILKszbBL3HQU6hc3nQHE5D4+bGg8fye8sSFFehP0W4iiUz+7PKk43T+9b5dqM9haHfceJZPfWYpxEGhiPDZv7x0MvpRy7DoqVNj0CtvMHMeaPSAU+2Q9kvII9hNThufbmNZtKdOg5kun5v86HNzadBzZ4g+Zg7t0lTT37SbWATTJpgzgx2BT8FdkalYu/Sd4sz5ctrW13Jg1NtzQvUssuFJcerUOfByoCUQzLneBGjGsUJQp0FvLtwVT9fNvWtxjluw44s5BLvKoU7XL3VkBznmONqj4cky4I5AZ0gIUxH2ZbnFeAliFAPw+CWK/K9RGJ8M42fEnMUt1NF2aEP8AWrvBDCm42iD5r6MY7fx/CentTOSeXRAOTxcwKIZHO22Oe5osTtenzi+UODsgModM1480GDmBdjVurwa6HTeF50dncBIYAYjgSBOjUzhxBnuBzESmFJrooxOTOH0WAAnzzJ+FmfGZ3F6fMYTOTU2jVrJ6fEpnBoL4PT4OM6Oj6synR6dwtmxaZwdm8HZsdmMTOPs+CRGxgwZHQvg7OgYzoyOKX2cDUzizBh1Mo0z1EcgmAm5Xb6cDszi1ERpcnpiFhR1XWAWJ8dncGpO3eTn6WxgVtUjyz0yPoWxwDRGxycxynKNT+LUSABnx6ZwdiSA0bOcPphScnY0gDNjoxgZG8Po2JgKz4yP4WQggBOBSZyiTkamcPpsAKfPjuL0yCjOjIziLMNR6nsyZzOBmTm6yuZrfBZnxuYe17rNnsc6G59R9qiPMdTHR8aDGB2fxej4jElYVi3meG4bejFsn7ZgnDc+MaNsgd/gGw1MqBdE1Db3KxB+qaOawulUO2GdsH4YchpVC89lfiopk921uozmvOg4I5xQ+j0zHsCpsTGcHBtTIbfN+6fHxnFmbBwj44XzaE7bfM9St3U6LBOnqQsJ7YLLDLAMlNMW0fFnx9m22J/Y1w3bGPtjI3Q6Jxev82gXmuvC7rhdnPkap2276+zinMvI/LOckzjL/reo8DzqJFfucreZT6dy6Xj2+2fGJnB6bEKNFxwzrMLxkPWo0mOaYwGMlSHjYwFQ9LVMx06XOt8j4xOgDWkb4/NU+bY2gTOBKXCsM2Qap8encUaNcRznTMJ4y3m56/T17kL2/afGOAYYkkvHuH9u31163p3P+7thFZ6Xy5tRHpbJEPMxP26fCRj51/lluKi1sx9tXYNo7RpGV98x7GsfQmvHMFo7B1V8e9cQ2joHsb9jCO3dh9HWfRitFcsh7O+qlRzE/q5h7GcZew6gvbdPLW/S3n0A7d1D6OgZRkcPw4Po6DmU2R9EZ89AVjq6D6Cjpx9d/YPo6h9CZ+9BtHUzTabtTTn2dR/C3gqE1+/vOYzW3iNo69FyGG09+dLecxgd3YfQ0XUQ3T2H0N1zEF09Q+ikDnqH0d5jiNrvOIDujgH0dg2hq9vQSXfPIHp6BtHdewAdfQfQ1j+E/f0H0d5rpNneOYT2zgEY+j2A9i7aF3U9iHbqrfcQ2nooc/NF+2rvNo4zn229+efwGsbr83iuOs+Ulipfz2F09hxGd+9h9PYdMslB9PZp0fGH0dNLnRxU9+7I6KezW+tnGF09g+jqGVBl5lujJUlfief39qtlR3r6D6CQdDNdJ+ntR1dPnxIuXWIWHc9Qx3ObZeJyJ739A+g7MIDefm67FV4zOEeYFsvAtM331ffu6OpFZ1efspHWrj7s7+p1lNauXrR396EzUy5reuZ9Xa6Orh44iT6nUKjS5Cei+vqL1kVnbx/ae3rR1tOLVoswjsc6eoy6cMoT9dHR1WcS7tuLkW+jjs1lz24z3xlbZVzRcmb0qq+xC7NpF6kDfa/C5TyAjs4i0tWPzm4KdUI92Nenvp+bsHAZjPuxv2/tPoD9DtLa1Y8O2mJ3r7Lr7p4+9FQgvL5wvliXfehiO+rrR2dfPzr67eQAOg8MoqN/CB19w2jvO4iOvoPozEhX30EYcgid7Ie7OX4NqfGxtfsgWtV4xnFtGGq/+1AmPOgYZs9VY+ww9nca1xtjrpGOMU7qNJ3TMu5pHNfXFwqteZ57Lsfmwy6E5+lys8xzRZdBn+e30JrnRXvb+rC3rR9tnQfR3XcCnT3HsGf/ID7cdwB7Wgcz20PY33EYrZ3HsK/jqGeyt/0IqiuHsbf9EPa2H8S+jqEMrA6grasfrZ0DaOscUvBKsG3rGkZb5yG0dR1EW9cQFNCq+EF13f6OPrR2Uvqxv6Mfe9sHsKd9CHvahrGn/WDZwrzx+g8z8oFpW8cVCrPndxzEno5D2EvJlHlP20F82DacFZXXtiHsbR3EvtZBtLZRBtDWPoD97Qewt+0A9nUMYF+nUebW9gG0tx1AR/sBA9aoj44DaGvvx/72Puzr6Me+niHs7RnGfnYMHcPqBwB1vbdjCHs6BrG3cwj7lAxjbweFOtMybOiPOswKr6VOGTc3/3vbhmHIUFb/5jJym+nvy5Sttf0AWtu5FlsfWtt7TcJ9xh/A/rYB7MWCBRUAACAASURBVFEyiD1tg9jbNoj9FKUj6odl7kNbey/a2rvQ1tFZUFo7OtVbpvwyg5b9bR0qTh3r6ER7Z9ecgYpvmPJTXkyfx52E5/AtVgrTtRPel58BcyM8N5eGka5Ov9JQp7uv1cinOT1Dlz1o7ejBvo4e7MnI3o4eUHL7vdjX0Yv9HT1oo446uxxF617f1yk058Nxm/Vc4F7mY7zvvo5O7O3oxJ7OfGEcj+2nFKiz/W2szy7sb+suKq3t3VBCe3HII/Oky6/t0CnkeY56yNiaOu5CJ7oOnNOj/bIt9mF/Wy/2t/VYhHFGPMto6GSunZvt1vleuXbCc1T7ctCXOsb7Kfvrw552e9nb3ov97T2ZvsDQf3tHFygdZYi+Vtejud3rOPYJ+9s7sLe9A3va2vFhWzs+mCMd+LC9Cx+2deODtt6sfKjGeI7zfdin5AD2tQ9iX/sw9rKfVWPQIdXfss81+t2D+LC1uBjnG/03xzJj7NFjUHlp8r46H4VDpl9IDmNP2xEXwvN0Xg9hT7uNZPRSOD8Z3bnQmxvdlnKOypcp34sINO1dB9HZcxRdPcfRP3AW7V1H0dZ5BG2dR9HedUxJR/cJdPSeQFvPCbR7IsfR2l1tOYbWbspR5eXp7DmErt6D6OodRmcPy3woE+ptw9PT1XsY3X2HlWeOXjx6f9oV5B1ABz1P9GIqqj+C1q4jaOs+WrEwj/vLkH3dR9HacwytvUY5mY7OD7fN+4xv7z6Cjq7D6Og6hM4uw8vW0Umopad2EPsVhBke3Pbug+jsGkZn1xDoweKvPOqhvZOgZ3jh2nqH0ao8mIfQ0X1Epd/afQStPUexv/eoka/eY2jrYb7o8aW+7HVm5JceOaaTK4cuj5F/2qQ1rbnpsYwsX1c3PZIUet6GTML9g+jqPoROev6yeWNdG/qhjjo6D4L66egcQEdnf86D0k3vgdmbYvYmdKOjuyf7i157EhinRcdZf6krT4mTJ84cb+MFM6el03fycjA+63FQnh161morPb0H0NM7gO6+QXT2DaG91146euklH0K3Eu05dcrrXO+gWS/mbcMrVTidwudkru07YHhR6LVzkI7ePnVOdx+vccoj4w9kPMRmW5273d1LrzmlkD7y76NtopxQ683QR3EvtD7fPuT1g+jpGy4qPM/Qib3X0T59ew9Ysbwb9kidDqGr7xA6+w/bSlf/IXT3DSnb5TU63Z7efvSWKbxWp+MY0lvX2w/akr2d9aOjbwBsL+2cfenlTMrB7CwMZ6gMGc7MehxR44PR73L8yI3HaizqOqacOXToOEr3cbR1H8uOOcY243KSTddNevpeprxkr7fGFU3vOFo7TxSXrhN5ZXe8n/X+Dvv7O49if+eRjHC7erKvI3cfg3WMOlw0PhFCYJKfUopjajqJyakEApMxBKbiGYlhYiqK8ckIxia8kfHJqEprJBBGLWQ0EMb4RBiBiSACk3x4nCHLbS8TU2FQ8o8HEZjggqS8JoxxJVwWhbqpXMamohj1QJhOofwEJqOqvlnn+eULYWwiCNrD2KTxhjDfFJ6YpGT0MR3GxDQX3A2rJS4CXBIm+0Yx9UV9ZGQ6hjElcYxPxzE+xTqn3vQ59vnM5Y/5tD8nVz5n/Rvli6i8T06FMTkVMgn3c8K6zq9P6iajH9U+WOes/xmwzFzyIzA1bYTcVjKFwOSUET81jYmpafWCwtT0DCjcV9focHIK44HJ8mViEoGJqcx9eK+cqHvpPE1MqfN4rlX0SxR8kWKKixbXSSang8quAtMhOAntbnI6VDSPxpIuxnIuRr3o+skPzWVn+Z2luF54T67hyDUkCwnPMfLH0OaeU7OYVBI02arZbk3bShdBV/pgWQvpws2xnL7c6cO2fLrMLOM08876LCyTU9SFsRC0XT5z+bLRp75fNiye96lpLuDNfi6CgINMTLP/Y761/nPtZ3p6FuUI2x5to1AbNOyskI3RBoOZNhRGYLqQRDA+FcboZBgjkyGMqJDbORmdCLsa8w024LkcQxgWEm8Ywh2LcMxxK8xXoXy7PzY6EcJIoPZizv8iyJ8vNJAG4IXUuzDmMqQAUMxx3Pbiz5qmF/ue5CvN5WGMlArliWcUOq6P2eVJH5PQnQ5FT6KnWtiAXVutNK4W+XZzj0LlKHR9oevkWPU0sMhYs4zrlgGplEnUWmaZeNnOrO02H/SRrrAsvN4s+TpJpqG+NczvDVuFxyh6nbw821Np6mPm0JpfY1+nxXvEzQIgDuPexjlpJFLFJZcX6/3MedHb5vIb24Q5tp9YPK2WDyLQ6jzahbxfMkVJFZRcvvS9C6drd6+5cWkk0ykRL3WAFJJuxMt71jQt2gxtj6EXUqode3FPN2mUmq/c+Wyr7AfMkkqlkUql8sRYH1SvE8ow17at7d2+7RYqRy4/c6/NP2btn532mY41X+Z9fR9ez22dTrHrzGlUd9tNn164jNXNn/f3XmQ2wrkGp40vhXR6vovRwPL1YW6kPF5dHSCdQqXiPo/FyqvLblduxpmE2c50aLkGYIUfbbx26Zn1yuNMr/B5hEvdiRDkzJKYA3bGAtNcZNpOCFepTN1S/4YOdT5yZcvlS+fNHBrnxxXYpZSnUnd4dqH6EZVMI5Vkp590EB7L5COjY+rXLj33cWkks/8SSEJEdFDMBjIWo0CyEFSUcqzUHxalpF3uuW7zxPTntkO2Td0P6tCAuvz2netf2Ndk2jev1f1owbbOezOfdmV0m3+35xlApMrCPDmI0Rfr/Bhpm/vTbMHU4GBM4zil5Wl8kTHE/Vipx4TGCV2CHY1PRHTgzgbyPXr5gOeVDjXg8NdhHtTN6XDprTM+feYUGmDnrmxO+adTncfiiaT6QkNRjx294wrs5v6iz/+Fz3zlBgxdbruBxV0cPUvyTzRQhgbSSQeg0IP6QgnnQh3bnj3YzW3fc/uQXPsu3tZrp2PFYaa+x5w383Z+n5Tr71lOw9WXeSZHP5ujAdZF2ub7lLddWb8+t64aIz0bsNO/IhqjAI2qeMl3ZfalOxPl9tfTr3meOt35EursPXU63guwY30SaDU8ugY7yzRNPtSZPHaZTlCX2x3EaR2YQ/6i5mfyjE/l8XN5IqKD4jag7aV2YGHvlfLD/c3tKbfNtmmFD7dTsdbruM/05rb32pXfrjyO+cw+emL0g+wPlTJUIQTsaj3eL6r1DeV+lQGN6M/QX777P42E49QEoU4PSs4DuDF1UHndzO2Icx2/GcaUVzMDdckkv0PM6Zr8Z3H0fn6d5zp81WeaBoDi+2kk+c3jVDwjCSSpG4ukUvxecFJEdGCxAT6ykPPIyHa+LjTLmEN3YGftd3KAOLdN59+zmnWQ3+9Y85jbV3lQYGdAJ/fdXivnVUdXAnZihA3ZCNl58FkT7XWbG+pjCSRS8YJCsPEC7FSeUsyXPcyZ4506Pw1z5tDo/LQnPdfpmwcQd9ucFiJAxjOSgII4lt8i6XQSIqKDfBvQNlidwahxB3mtl7ltszSwc04n1779p3v2ZcYMRXGwc+r3Grfu/Vcf1KWAnYBdQ4Idp2n0tGfh0PDY0WtnL/ReVQ52GsTUW6623kOj09PTSwoCM566Qt46ppvf6c0dPHKdfuFjxiAjYJcPKwJvpenDnwNZfhupVx7ntr/SwE7ne246uTauz/FP6AR2ualYY1pB15HAXfXrTsBOwM4CDtU3Ot3AKwkJUIWBTh8v5rHjVCSnHa0AVZoezGBneA/5LFs+zOXtp1KIx+OIxWIqTCToNbOfis2P55u0fPGiHNEeO95Le+0kFF0UswHt0SUEl9YuFtb5c4Gs0cFO9z2F6lGBGh+jy/R3GtyyDwma5pMLpSPHvGtbAnbSUTVsZ+0O7uixc5qKzUDdHK9Y6Q1Md4AMldeOYRGwI8xpKea1M9InmFUAdmqdSsIjvXYCdwJ0xYBOH6et5J4BlQHYqX+YC3bUlblv4HZx/dmlo+Oc7l2deHf55RLFzF/u+T9uWz12dqCXFydjsQvbcFfPAnZiTJ4ZU/EOy51RlpKO/pXoDFEELIeXJiyeOmsHbLfvNm+F8sVjSiydvLtOVHfwZYQK7PRAo+FOe2MaI7S+6DHf9q3POla671Y/he+Tgzq7NmGNc9tG5t95dm2ynD7PLh0dV0569blGwK4+eme7ErATsGtosKMRZ0HJcdtYgJjTrVYxDy7WAcpu33x+se1C+Sp2rfNx3cGXF+amhjhYN55w2nzuizLzI049EuBhnbjVlbv7unlMwDjH2XbrN9A1Vp4Kte3G0aEd2DVWPTSOrq16FbATsGt4sLMadTn7dhBnF1dO2t5eU6jTL34sB3buB2o7PdQrzt30u36+srFCls1LvbrVldf39dbeG3dwLV8Phdpx4+gjb5qVz9llxlr+4C1fN3KtG90J2ImRSSOjp8/loOqmUVX3nEKdfvFjAnb+hT2vAUvArlEhoFA7bpwyOYFddfvHxtFPNfUgYCdgJ2DnIdgREKvZYPUzyeWGAnYCdta3yb0Gyura/0IYuBsP7Jy8cFa4E9uojf0K2AnYVRlEamPIlXYYbj12bs6rNC+Fry/U6Rc/JmDnX7AjcHkJWeKxa4y+Z257L9SO/Vcm67PE1vKY4c56TParU58CdgJ2AnYleOwE7Lx9DsyNPs3nuIUVq1eqkfa9gju3uvLqfrqeZLCudLBuHLAj1JlXJNCQZ7UBBXcy1tZsrBWwE2OrmbFZG7uf9vWg5EVY3XIV6vSLHxOPnb89dl567QTsKgWsel1fqB3XK09z72uFOg14jK9uHyjpF9OvgJ0YoTRC8di5fnnEC/CtJA23sNJIHjprXllGL7xobnXlxb3MdVps0JHjxcCkccDODu4E7IrVb/WPC9gJ2AnYNZQNFOr03R6rfsdSzcGbA0ctRYNWTcNkMvtVEv11krLCZAKJIuLuqyeyRp3VptXnFkz/WY8vhH27drgQyu33MgrYNdSg3tgDst8bQ2Pkzy28FTpP7KiUujZ7o2q1TdgqC+TMn6lLJJB0Kalk8a9LlKKzhXKuievkB7KMpb6xAQE7MUbfGONCGQwqK2chYHN7TMCusjqovv5qBZCl3MfvOpP8Vd8uRceNoWMBOwE7AbuGsgG38FbovMbonBb6IFIKdNXi3IVeH1J+6TcaxQYE7BpqUJeG5aeGxemy2ksKyWSlUo98N+49awFN5nvU3qbcTfsyj35qf5IXGQ/EBuxtQMBOwE466zJsgINcPB5HLBZTEo1GUX2JIRqlxCsQXl+LvM6Pe+j6rXVY6zqKRCIoJMwPgVMGUvuBVPQievGTDQjYlTGo+6kCJS+161C0x4IPTHOgP3v2LA4fPoyjR4/iyJEjIqIDz2yAdlUvsdryoUOHcOLECYRCoey7AtrDKP1P7fof0bXo2q0NCNgJ2Mmv8CI2wEGMbyjSQzczM4P+/n5s2bIF//7v/46vf/3r+OY3v4nbbrutBvIN3HYbhfcrV3h9LfIq9yhVz9/4xjdA4XW33npr3UTnW+eHNn7XXXdh9erVaG9vx8jIiPL6sk3Qi6d/8LgddOQ8ARSxgeragIBdkUFdDLC6Buh3/XLQ4uDFqahTp07h6aefxhVXXIE/+7M/w6JFi0REBwvGBj7+8Y/jH//xH3Hvvffivffew9jYmPqxI1O0C7uP9HsfvhDzJ2AnYCceu4wNcJ7J3Ano6SZOQdFL99Of/hTnnXcezjnnHHzkIx/BH/3RH+Fv/uZv5sgnP/lJVFf+Bp/8pJ1U+76SfnXr1X/6/e///b8rW+YPmY9+9KMKYs8991z80z/9E5544gmcOXMm+9USc9uRbYE9sYH62YCAnYBdHswsxMZoBjoNc/RCaNm/fz+uvfZa/Pmf/3kW6P7+7/9eTZmtWLECK1euzAr3n3/+eTz33HN49tlnKxamky9Me4WNPI9nn3Uj3uTLi7KVmka+Hqx6kX0n/RTSs9M1jOd1zzzzjLLn733ve1iyZAn+9m//Fn/8x3+M3//938df/uVf4qGHHlLPmsp0bP0G8YXYZ0uZC9ubgJ2A3YIHOz3dymfo9Juu+q3EY8eO4Qc/+IEayD72sY+pKdjrrrsO69evx+TkpPJWaADUoYbD6oRppFKViPFpqOrkTdJuVL3Sds1furDacjgcVo8irFq1Cl/84hfxJ3/yJ8pz/YlPfELBHR9T0IOt+YeSjpOw8EAs+hH9eGkDAnYCdtkO2UvDaqS0OBjrlyM03DHkM0SPPPII/vRP/xSEOobf/va31duKHPh4HQGQgx6nayncZpw5nUq3zQNuIsEBOCfxeBI54QsexcSA10rzVK/r83WRyIMROZavD7d1xDe8abfBYDArZlumPdPe9V9HR4fyVv/FX/yF+sHz13/91/jlL3+pfug0UruXvApMzVcbELATsFvwYMfGrT0UDAkIXNNr06ZN+NSnPqU8E/RQfOtb38Lx48ezL1PoToGAZ75ex3sV6gHVKUynC31lwu5Y43boTjqQeHsNuLVBqw2b7ZnHdDr6vO7ubtxyyy3Kg/17v/d7+Od//me8+uqrahkgth99voSN29ak7hq37gTsBOwWfCfMwYqDET0c2gN38uRJ8LkivijBh8U///nPg4MZOzv+6U5PD3R6IDQPgvqcSkP7ITs/VsFdCkgXEgWAjdtZad3nl1z2CmmgHNtzSo9p0b7p4aO979q1C5/97GdVG+Ezdw8++KBaDqice8o1jd0upf78VX8CdgJ2WUhZqI1Tgx3hToNdZ2cnvvCFL6i3AP/qr/5KPUfE6SrCn9aThjpeZxbGeyX6XrnQzgMHpFJAKulC1PN53uXPq3K6TSenB391pH7Nl1u9Ws+zlkcf1z9geHx6eho//OEP1csUXPqH698NDQ1lvdfWNGRfbFZsoDY2IGAnYJcFlYXc6PTApT13nIalp44eu4svvhgHDhxQsEaw47kc4MwwZ97mMZ2eF2F+vdiAnVuoI/gJ2C0oe/fC/qxp0B71386dO3HhhReqH0D/8A//oBbuZltgG8i329oMaHJP0bPYQBoCdgJ20gFnbEAPYByUCHZcs47PD335y1/OG6g0uDG0E52OV2F+RyVgl68PGcgK6cOtDRZKw+6YBjt+boxvidNj9+lPfxrNzc3ZNmF3ncSJvYoNVN8GBOwE7ATsLDZAWNu8ebMCOy7KumzZMvW2IAczdkpuB0svzpvbCVYCdnqZFJmKnavX6ne29bpnMTvU+dKwVkpITzbbB8HuggsuQEtLi4CdpT/R+pVw/rYxv9WtgJ00QgE7kw1wEDSDHadiL7/8crUIKxsvj+uw2IBZ6XH7zsIO7NJIJV1Idv07ATt73c7fgcfJFq16KAXqeO7AwEAW7MRjN3/tx2onsu/vuhawMw3qYqz+NtZq1o954DODHT0Rl1xyiVq7jvfnsWrmo9y0zfkvtF1u+nbXFbpPvY/Z5VfivG3fVrA7//zz0dTUlPVoi7691bfoU/Tp1gYE7ATsfAkqbg3Yq/PMIGIFu8WLF+Po0aNZT51X9/QuHXrg+MJGMcmtR+bFvc0689u2F+WTNAoPpE5gx/bj1x9AUqeF61T0Mz/0I2AnYCdgZ3lujoOSfnmCHjuC3ZEjR5Se/DpguQUrLztut/esx3lellPSsh/snMBO17fozV5vohfRS7VtQMCuKmDnrWek2kYg6ee/ECFg567j1QO4H0OxaXd1WImeBOyqr+NK6keuXbj1I2DnOdgR6vgclsBdI3UsZjgRsHPXIZp15rftRrK9Rs2rgJ27dtKo9Sv5btz6FbArCew0tDmBmz7ObyU6ndO4xjKfG7oZTATs3NmoWWd+257PtuqXsgnYuWsnfqkvycfCqS8BO9dgZ4Y2DW5mQ9HHCXRmYbz5PNn2oz7MYCJg585GzTrz27YfbWy+5UnAzl07mW/1LuXxf70L2LmGLgIagY7fCo1l4M1cwYQ5HtfQp7cF7BqhIzCDiYCd2a6dt80689t2I9hco+dRwM65bTR63Ur+G7tuBexKAjvCG8GOwm1z5WuPnRnseI6AXb6ezDrzz7YZTATs3NWLWWd+2m4Ee5sPeRSwc9dO5kNdSxkaq64F7PLgrFDlmT12Gt7M52uwI8yZRcCuEToFM5gI2JntuvJts26dtu1sxO5cu/MkrvI6KkeHAnb10Xs5dSXXLKy6ErArGeycplgF4Bq58zBDhICdt52gWbdO23a2Y3eu3XkS5219udWngF199O62fuS8hVs/AnYlgZ3ZK2cHcjbf8XSd/sI1Qj90QGaIELDz1hbNunXatrMBu3PtzpM4b+vLrT4F7Oqjd7f1I+ct3PoRsCsZvAh0GursQM4ubuEaWKN0LmaIELDz1l7NurXbdrKRUs51SkPiva1Lsz4F7KqnW7OeZVv0XKoNCNiVBHYa6GhodgDnFCeGWaph1vp8M0Rkwe7c8yCfFKuf7ZrrRG/X2i7kfs71L2DnrBuxG9FNPW1AwM412BHqzG+5OkGcXbwYeT2N3M29NTgwzIHduQJ2rtuH9zZurhO97aYu5Rzv68JOpwJ2tdGzne4lTnRfyAYE7FwPXIQ6/Tas9tzZQZxdnBhhISP0wzENDmawO/c8Abt61U0qnf/9Xl0/9cqP3HduH0awGxwYxPJly9UPoPPPPx9NTU2QupqrK7Ef0UktbUDAzjXYaY+dXspEw50YbC0Ntlr30oNRDuw249xzTWB3+LBat5DevGrlofx0U2owTdLbWEBYtvLvUVs7T6UE7PxeV4bHbhDLBOwapl353aYkf970swJ2AnbSKVm8Q8lkCps3bcF5556Hcxadg0sXL8HRI0eUnlLJBNKppCF56xVq4PciJIAVEpt7ENqSRSQDdiU+IGrngq5+nCpPEmmCdEaQSlX/vqU9PLtA8kO9G2K2SyCNwYEBLF+2THnsPn3++WhWHrskUr78AeTNoCnwIXr0uw0I2LkGOxqzebAV4/a7cZeSv6zHLplGMpnG5s3bcO65f4CPnPNRfOGyK3H2zEgG7JLqGbxkKgmrpNJJVC4ppNJWKZau9Xy7/TSM6c00kqlGEHofrTpmuTLlkLCGusjZUzKdgpY00hgYHMCy5Rmw+/T5aG5uUlBHsEMqbUjBPlazsfSnpfRXcq7YSyEbELAr2OmI8RQynvl0TMFUKo1EKo14EmjZvAMfO++/4SMfPQ9Xf+mrmJyOIZYCwkkgRElZJA2EPZKIOR0AYaQRRioj3KYw3r1EMueG0kCwgSUEQMQfOkgA6B0awlXXXGM8Y3fB36GppSUDdqk8sNNAnpwD5LnTeM586lMWZlnMzg9uS53WQwcCdmJ4C77xEeroHUqkUogl04gkgI0tO/D7HzPA7kvLbsTMbAKxRBrhBBBKZACPoFehEOK05IFhKo1QKo1wOolwOo5wOpYJE5m4FMJpCs/RouMsYRYKUwilUwhmZDadQv0ljdk0XEsQwPyWNIKgpPwn6TRCJjHAbgBXX2N47D51/qewoWmj8ZhCMgE1da6m/w2PHz19iYxor585NMBOe/B0KGBQDzAo754EOfNjIgJ25emxcpsXsBOwE7DjYJNKIppMIpJMIZxIo6llG/7w3D/Cn/3BefjWDddh5uQRBM8cRWj0GIJZOYrgaLlyDMGxYwjZylGEx48gGjiMWOAgYhNDGRlGbOIQYhOHEZs4gtjEUcQmjpmE+zYSOIpoRiKBI4iMH0Z4/FCdhXk4gvA4y3rMpRxHJDDf5RgigaNQ9cS68o0wT5TjiEycQJQyeQoDXe/g3269Bp/+xJ/j4v/3/8QrW9cBqZgh6QSQkTQSSJokhQTMkkzHkVSrDnBQ01DHsPJBTtKolQ412Dl9drNW+ZD7CNhJx7HgO08+XxdPpRBNJRFOJhCNx7G1qRl/+2d/glsv/r/x0n98C91rHsbghv/E0Mb/xFDTwxhqeghDTQ9mZTCzzXBgwwM4sP5+Z9nwAAY3/tS4tvkhDLc8jOHmhzHY9DAGmv4TA82PoL/pMfRu/Dl6N/4SvRsfR2/Tr9Hb9IRFfoOejcWle8Nv0LX+N+hc9xt0rPsNWl9+Avtf/jX2q5DbNrLuCez3UPa9/AT28Z6mNLm/d+3j2ONSeO7etbzm1yotXm8WfayRQ6Uj1se6J9BKWf8bH8mTaN3wFNo2Po22jb9De8szeG/Nr/DMvf8TD/yPa/DYD76BD17dhMDZUUyMz2J8LJiVsbEg5sg442YxNR1BLJ5Qz5amwfc0+EY0B2cBu8aCUjPY0XMnHrt61Z+AnYDdggc7LhESTyURSSUQScQRj4Xx6vq1uORTf4XNP7oVw0/fjbafLkf3g0vR+9AX0ffQF9D30OVZ6X/ocvQ/bOz3PngZuu5fgo77FqPTIh0/WQxK5/1L0P3Tz6HnwcvQ++AX0PvgF9Hz4BVof+AqfPiTa7Dz37+Kjffchmf+9Vv49W3/hl/cejseu/UOPJqV2/HorRm55XY8cssdGeG2ndyBR75+F3528934z5vvxkM3fwcPKrkHD958Dx7KCLcf/Po9eCAj999yDzyTr38H93/9O3jglnvwwK3fxQO3fFft/+Smu/Hjr93lUu7Ej792J+792l2476a7cd/N38kK02E8jzeqMP8UlkWV7evfwX2+EtrD9/DArT/AA7d9H/fd9j3c/83v42e3/2889p0f4Wd3/Ri//I/H8fwvW/D8U2/id0+9reTpp3bht0/twlN58jae/u3bePLJ17Fu3YfYt+8Qjh4dRSgUU/2RfiavXgOj3Lccr5eAnV/sRsBOwG7Bg53hseNUbALRRBzJWAhvrF+Nz/wff4yf3/gv6HzkZpz53bdw5umbMfq7r2L0mRswNkduVHGjv/sKRp7+MkZ+ez3O/vY6G7leHRt5mufdiJGnv4aRp2/D2d/djuFH/id23HkLnrv523ho+ffw/SvuxbcvvQ+3LH4AN13yAL6WlfvxtUvuywi3H8BNi3/qKDcvfhA3L34Ykmg5rwAAIABJREFUNy3+GW685L9wwyWP4IZLHsUNlzyWL4sfw5cXP4brljyGa5c8hmuqKZc+hmsuNe5zLUMXovKz+FFcs8SQ5ZmQ6TBuOY+ZjuvzGilkGZb5VAz9ss5+gWsv/QWu/dxjuPZzj+L6yx7Bly9/BNdf/gi+dOl/4QsXP4LPXfxLXHrx4xn5FS5V+7/EkosNUccu4fZ/4Zplv8a//Y+VeOCBJryyvQ3Hjo0jHKEHj3BBWBDPj1+AoXA+BOwK66ccWC7vGgE7ATsBu3Q6OxVLuEskIni95WV88uMfwf/zpx/DY7f8C9C2EjiwFuhfDfS/mJFVQL9F+l4EKL0vAL0rbYTxWl4Eel4Cujdj5u1teOunv8J9X/wu/tflD+PfLv01/vWKF/Dt5evw7es24F+vp2xU8q3rNuAb165T8s1r1+Mb167HbcvX4dblL9sKj922bB1uWb4eNy/fgJuWb8RNy5ts5WvLm3DjNU24oUrylWUbcf2XNuD6L63H9cs24CvLN+KG5e7ux3O/ssy49tqr1+GapWuVXHvVy7ju6nUqTR7nPUQ81AH1vnwjbrymGTdftwW3fHkbvv7lbbjlK9tw8/VbsPyLL+Hqy1bhuqXr8LVrN+Pmr2zHTTfswE1ffRU3ffU13HTjDtx0w3Z8/cbt+PpXX8HNN1IYt0NtX7tsPS773G/x+SU/xw3XP4GHHmzG++/3YXpmNvO1n3jmofzyBjm/DLbzPx8Cdn6pYwE7ATsBu3Rava0XS6cQp6QS2Lq1Bf/tD8/F752zCNdduQTxqWGk0yNAelSFaRWOIZ2mMI6i9xly3Ts7Mc5NqWPcnsbIkdNY/6s38N0bVuCrn3sBNy/djG9+ZSv+8ycfoHntMLY1HcS25oPY3nII25sPqf0tG4dgyDA2rRvE2hd6sPr5LqxZ0e0sK7uxamU3XnzBWVa90I3VK30qK7qx6vmurLz4fCco5jjZzunHK12sXtGFVSu6sH5NP7ZsPIitzUewpekItrUcw4qnB7D0skfxqU/chn/553vx8P1vY1PzMbQ0H8OmTcexadMJNDcfRUvzEWzedCwnLcexqfk4WppO4NGfteP2f9uJG69vwZWXrcSVl/8Cd97+JN7c2YbZ2VAG7sRr5xdocM6HgJ2zbmr7o0TATsBOwC6dBtfXisMQAl7Ltq047w//AB/96DlYvuwLmJ0eQToZAlIRpJMRpJJRJJMxB+GxiIPwWOZ4Io6JsTDWrNyDL13+Gyz93BrceO0b+I//3YPm5jM4cRJI6o8t8KHyjHDdV8ZrSSSBSAwIRYBQ1CLWuDgQdJBQ3EgnFgPiUR9KBIiHReqhg1gESMZNRkhjBDA8MI1rln0XixZ9An93/lI0N72jVjmhTWr75FrF3Kbd8gMW/IAIRcUngTOngX17Yli76hh+eM/7+Mry9bjqi7/C9+9ZiXffOYBQMGbYvvllCvVyRW0HS78M2v7Nh4CdX+pGwE7AbsGDHRsjn+ch3CnAS6XQsnULzv2Dj+MjHzkHX7r6CoRmJpFORIEU1+eicGV90yilthmnRZ83NzQ+SZbC5EQUG1/uxS03rMJVn/8tvnrNC/j1o/tx9JAxgqbBL05wKRZ6FHMST6URTeRLjAsrqyllTis7iILXFGKwlziMrwrwmaa5ZfNBXJYUTFQrcSaCqqJe7Gw9ncbwwGFcs+wGLFp0Li644P/CppZtiMfTiERTiMXTiCcoKSWJZAr8XF8inkIsYQiPcS07fsWCoNfVPokf/X/v4ivLm3DN0ufwg3tewu73hhAOx40PWSgzTKvP5xk2anzdwi8D6sLOh4CdX+pfwE7ATsDOsho+35LdRLD7OMHuI7j66qsxOzuLRIKv8GfW2Mp9PlN/RrN4mLE1jpGRaBoffngS37i1CZdc9ByuX/4SfvHoBzh2JGykoz4rFkMqnVADHxd2jaeTaso4yRXAMvtq6lhPIRcMk8b1SCKuJIEE4kriMP5xP5Xm80xxgJKqnaRTcTSi1FJHdb0X16NDMiNcn442ksLQQD+uWfYl9eWJCy44Hy0tTZlPwRnLlxifxzM+DcfP7aXTjKdNZ9a1U+vXcQ07nmP8LmrfN4Uf/7AL1y5twRWX/Qr3/aQFw8OjWbDjN5GhFkDWP6JkmtYfQCFg5496SEPATsBOwE4Dl/bcpVLYsmULPj4H7PSbeuVOAWVoEMB4IIbnnu/B0ivW4IrLN+K739mOnu4JVRfJZBLGt2t5n/xPLullIKxh4e+/8ssaKbU2mPU6637NO6bMlBrzoT2mfgutOjLvK32pOUaXNsHyNqCouVBj9tX4X/3CAQYHBrF8+fIM2F2AlpYW5ZWjZ86sJ25r2+K2Ucf6u7MEvaTy6kVjafUYwJuvjuNfb3kVV1z2O3zta0/hjZ29yvvHH0VpNYfLRZD5w8Pwnuu0Jczpufa6ELCrvc7t61vAztTh+KVSJB/2xlorvRCqqgV2/OQO/4aGJ/H9H7yJSy5Zja/e8DpeXDWAIB/ho6cuFUMqFUcqZQBertzsOO3FOJfnFxLj2oxL0Ly8v9rO3cfQv3VgruY+B/oE/CVJTg9mIcR+2wwsVv3Z7VdTh9VMO/NIXRbtVNkADAwOYNly45NiF1ygwS4J/jhxtFV+wo+i/uW+SJFIxxHnVG0SGBsBHv95D66+Yi2WLH4ETzz5BkbHgwoaU4k4kMx83ULALgvMdvZW2zgBu9rq23mcFLATsPNRx+BsqLVsMIXArrJ8GB0fR8e9e07huus2YMmSF3HPd3eh7wDf/iPYUQeEM4IdP83Da4rrxfDwEQoLi3NaczgvN+2sp5+rFuY/41gMpmp5vBgsaX0a84R57lWzqzW7rc9vtDBLdJkN5p9/AwMDWLbMCezs7VZ9m5lTr/qfAj2CswF8fDaPTrldO8fxrVt2YvFnH8cP/tdqHBg4gUQigSTf7EnyeVfCHT127tpIo+m88fIrYOeXOhOwsxk0i3XmxuBr32n5pWIlH+XXT9XBLg28/95pXLW0CYuXPIt7738Dk9N66EwB9F1lnnUzPqpdvCzFgE4fd7aLeoGdUTa2qVoCm5t7ldLOXYNdg77Nqa1Th7Qj/pUDdrw2C3cEPFX3yE7PEuzotevrSeH7d7fi0oufwT3feRk9PScQj8eQTIQF7GzGLee2Xbz/8OZaATtv9Fh5fQnYWRqIhjp2NnrbHJrj/VKJko/KG4JZh4XAjsfM55a2rTs+gt1ZBXaXLH4cP75vCwJTHCY5WPIh9SjSlDQ/r8QpreLl0+BWLHSTVr3OMbczP2yXogfXYOeiLku5b63O1UCnQ96Xf+WCHa83XqzIPItneuk6HjM8dr1dcXzvzn343Gefx3fvaUZv7ynE41EkE0EgGRGPne9sSfdv/GGqp+KL9121suGFdB8BO0vj4IDi9a/5hWRQ86GshcCusvIZHR/57YP3RnD10hZcsvgX+PH9zQgojx2XfeCaXWElqTThjp1k8c6xGNDp427SknOK69uqI8tbLtmp1zzgc1GP1nT9sq+BTofMV6Vgly2b5Q1zA+zS6OuO4Xt37MWlFz2P79zdhB4FdhEkE7NAMixg5zt7ErDL2nSd60bAzlIBAnalD2p+MWav8lErsLtq6SZcsuRX+PH9LZjIgh29dXzeLoxUKpJ5zq54nWhwKxZ6pSNJp3idzCcdaaDTIctWOdgRBKhHY+FiLp9I4Tp4yaQBdt+9fQ8WX/gs7r5rA3p6TiIe12BHj51+K1ans7DqxH/2JWDnlzoRsCsD7PQ0kV8qUfLhbYfuBHbGm36V3Et3fMDu3aNYunQLLlnyeB7YATEgHVGSTkWRVi9QFL9nMaDjcbGT4noUHdnrSAOdDqmnysFO38sKdsZCxvTY3XP7HlzymWcyYHcK8UQEiQRfH9eLhSfVxVJvWpf1DHX/JlOx9bZHATsL2LFCNLgVCutdcXL/6nVg1QE7dnq64wPe3T2GK5dux8VLnsCP79+ESfMzdunMUg7JGNRXKmxsVOq/evUvup2rWw10OqSOqgd2CbVcSm93FPfc/iEuvvBZ3HVXM3p6TyOeiCHB5+syCyQrdx+fTpU24gMd6P5NwK7e9ihgJx2CDzqEuQNJPRuGE9hxqYXy85UDO65n+87ucXxx6av47JIn88GOK/zrLz7w45wpdy9PlJ8vf+leyuHP+tBAp0PWk3dgxzLn3spWb74mE+jtDuM7d3yAz174LO68uxndvacRS3CtO+PZU+NlIyNHYjd+sBsBO7/YoYCdgF0FsOKHzsT7PNQC7N7eHcDlV72Biy4tBHYJ40vpDbpEhl86OclH5W1EA50OqVP+VfJWrFO9cLo1mYyjtzuEu+94H/9y4TO4wwR2sVQU/DyZgF3l9epUB+XFC9iVpzfv61HATsBOwM5iA7UAu10K7Hbiokufwo/MU7F5HjuCHdeBMNwZfuk0JB/ed8R+16kGOh0yv96DneHVjifCSKbi6O0h2O3GRSawiybiyIGdzo1MxfrDfgTs/FEP8q1YgRoL1PjFMOuZj1qAXdZjt0TArp51Lfd2B6k5hDK2qDf+Vc1jJ2DXgGOTgJ1f+hPx2AnYNGAH4m4wKreRCdhVV7/l1otcV796EbCrn+4bx+4F7PxSVwJ2AnYCdhYbELCTQcwvHbRf8iFgJ22iuC0K2BXXUW3sSMDOMqj7pWIkH7VpAHZ6dgK7ytaxY6dndHx8ZE6mYutXv3Z1LnGF60PArrB+xH6oHwE7v9iBgJ2AnXjsLDYgYCeDmF86aL/ko/5g16SWO5GXJ/zcNgXs/NJeBewsg7pfKkbyUb8OzAnsuI4dj5VXN7zO6PjEY1e/ui2v7iS/9QS7Cz/zO9x+VxO6e04jmoghmjSWO2Fd6j+pVz/YqICdX+xQwE7ArkxQ8UNHUp08FAK78qdjBez80ulJPkpvNxqgdEgd8q+ab8X2ZZY7+cxnnsbtd27MgR3XuXP5qT2p69LrunydCdiVrztv60nATsBOwM5iA4XATjx23nZAfukIJR+F61UDnQ6pLwG7wjpbeDYlYOeXOhewswzqfqkYyUf9Ok0Bu/rpXuzen7rXQKdD1pOAnT/rqn5tSMCufrrPt0UBOwE78dhZbEDALr+T8EtnJfmoX71ooNMh60LArn714c+2IGDnl3oRsLMM6n6pGMlH/TrNQmAnz9jVr16kTdRP9xrodMi6ELCrX334sy0I2PmlXgTsBOzEY2exgUJgx2OU0hswrzE6PnkrVgbE0u2nvjrTQKdD5l/Arr514j8bErDzS50I2FkGdfZX7kUatl8M2ct8CNjNJ7s2t+f5VK7alkUDnQ7Z3qoNdr09Idx1x25cyLdi75K3Yr3s46qTloBddfRaelsXsBOwK8P7VLqh+cXg3eSjGNi5SWPuOeKxm6uTWtiRgJ0XetdAp0OmWRuwew9z1rGT5U582mcL2HnR1rxIQ8BOwM6nnUQtBn37eziBXfnP1/E+AnZedFilpyFgV7rO5rYLDXQ6ZJq1ALu7lceOCxSbPHamBYq9KJukMbe+y9OJgF15evNK/7l0BOzKBrucEv1SmZIPb+pEwM4bPfrDHjXYzacy1b4sGuh0yLqtFdhddGHmyxO9/PJEHLGU8eUJnReG/rC12teLv8otYOeX+hCwmwN2C71xSvmdwC4ej5f54gR1Kh47v3R6ko/S27gZojRIMazmlyf4jB09dhdd+AzuuLtZvhXr+7FKwM4vfYuAne8bS+mdsF+Mq1HzUQjsyp+OFbBrVHuQfBveOTPcUScCdtI357cNAbt8fdTPPgTsBOxkGsNiA05gl0gkxGNn0ZVfOjLJR3UHETPUcZv6FrCrrs4bz6YF7PxSZwJ2MlAJ2FlsQMBOBiy/dNB+yYeAnbSJ4rYoYFdcR7WxIwE7y6Dul4qRfNSmAdjpWcCufrq3qw+Jq399CNjVvw783w4E7PxSRwJ2AnbisbPYgBPY8eUJecZOBji/dN61zIeAndh9cXsTsCuuo9rYkYCdZVD3S8VIPmrTAOz07AR2fMZOwK5+9WJXVxJXm/oQsKuNnhvbngXs/FJ/AnYCduKxs9hAIbDjsfIaL68zOj75VqwMkuXZUP30JmBXP903jq0I2PmlrgTsLIO6XypG8lG/jtQMdueccw6WLl2KYDCovHUCdvWrF2kT9dO9gF39dN84di9g55e6ErATsCvTAzV/Ozoz2C1atAhXXHGFAjvGlz8VS31ZPXav46IlT+JH92/C5BSHzjSQTgCpuCHJBJBMAqkUkF3gmGmYxW/1YM4bt/2WP8lPOXUiYCd2U9xu2N6TSKcTmVDaf3GdVceuBOxk4JHB12IDBLjNmzfjvPPOgwa7UCik9MRjlPIaLK9LwJiKHcflV71WHOxSCSCdVGJ0muw4zVJuXirtUPSnuswh82LOG7frlb9KyyfXm21cwE7swWwP9tu6/QvY2eundjYkYGcZ1OtdIXL/2hm/k66rB3YEnXLAjnDHztIq9QQnM9DpbXPHLp27k301YryAXf37Jf/bjbn917NvkroSsBOwK9P7NH8bT23ALuDOY8fp2FSjeOxoE9K5+38ALr3tCtiVrrP5aAeFyyRtv7B+amdDAnYCdgJ2FhsQsHPTAWkvnTnkdbpz5y92+dVe/Y6e+jaLm7or/RwBu9J1Vv2691uedNsXb329617AzjKo17tC5P7176wE7NzUgRno9Lbu2DXUVQPs9L0YusnnfD7HTt/VKa+AXXX0Or9sWNujgF2961XAbsEPDtJhWRuhgJ0bmzADlt7WHTuBzuvOnWlTmDeBunzPKHWt9a3rzqwvHVd+KGBXvu6s/cv83dftX9uibq+iu1rXuYCdgJ14Piw2UFOwu7TYcieN9Iyd7ti99tiZ05XBIh/q7HTtvb4E7AROisOJtjsBu+K6qq49CdhZBvV6V4jcv7oG70a/BLstW7ZUYbkTw5OV+/LEa7hoXoEd60537ho4vAAxc5pepFd/G3Njh4XPMevEqmvzMW/0JWA3H2ym2mXQdidgV7jtVrse0hCwE7ATj53FBpzAjoMbj5XfaO3B7scFFyhuJI+d7rB0B8/yVqKvaqWn02300EnPTvHll1fArnzdld9fNNo9td0J2NW7zgXsLIN6vStE7l+fzsw8cLEOzB67K6+8EuFwWJ1SWf3kg91lmQWKc2DHL0xkvjrBr0+oL080CthZ642dPMUaX+6+1+mVmw+/XeekF6f48vJvbh/cZr3yb2BgAMuWLVMLeV9wwQVoaWlRX2ep5Ast8UQEyVQcvT0h3H3Hblx04TO44+5mdPeeRjQRRywVRYqLdpv+vLOz8vQj96feaHNGHydvxNfXjgTsPBt46luR0rFUpn/TGKEGrWqBHRca5lTsrt0BaLC79/5NmFKfFGsksKtM32KvpehPv5xSv5dGzO2D26w//gnYlVKP8/1cATu/9GsCdgJ2HnpVGrfjMg9cbJy1ALvPZzx2AnaNaze168g13NVHV+b2wW0Bu/rUQ+3srZzyCdj5pX4E7ATsBOwy3gc9eLFxVhvs3haPndhdA/U9um3oUMCuHPCZ79cI2AnYNVCn5pfKknxUr2PUAxZD6lnArnq6FjtuPN2a24duIwyrNhWblGfsGq+dCNj5pc7EYyeAKZ4T8djNYxvQU5gGsPul460sH+YyFdv2BiIF7LzRY2X17vc8CNj5pX4F7ATs5vGg7r4jNA9cbJz+99jJkgLuOlEz+Li3B3dp1ys9c5mKbXuTR3P74Db1w7/qeOzC8lZsQ45LAnZ+6TcE7BqyAXnTWfvFCP2QD/PAxfz4H+y4rIBX68TNZ3syg898Kae5TMW2vSmzuX1wm22Ef9UBuwiSnIrtluVO/NA3us+DgJ17XXnTLp3uJ2AnYDevPHZcQFiLk9HbxZsHrkILFOtBzS6N4nFJ6OVO3L88kQRSvE6DnDlkR1rdDqLx09fgM9/0pMtVLPSm3Ob2odsAw8rBbm7+4/EokskEervDso5dQ7VvATu/9JcCdg3VcLzppP1ifNXIRzlQZ81HIbCznlvafrlgx/Xt2GlaReyhNP2LvsrVl/dglwE6w7Rp3lmJx+MmsHtfFihumDFKwK7c9uX1dQJ2DdNoZFDy2vid0iPYbd68ec63YrWnwum64vHlgF0KakVjsVPxTubZgBXynfa96Te8BTtnqCPgGWCXzHjsBOyK9yve1HHl9xGwq1yH3tSlgF1eZ+mNUv1SuZKP8upTwK48vYm91Upv5gGUL9E4CaftvcmT52Bn8tCZvXU5sNNTsQJ2XtVh9dMx26U8/1t9fTu3bQE7jzq+elai3NvZwMvRjYCdt/ospw7kmkJ1YB5AnaBOvzVdKB33xwTs3Otq4dqu2S4F7OppBwJ2Anae/aqvpyF7eW8BOxnEvLQn79PSA6j5RRq7bZ7nTV0uTLCj/uzEG516VTf+SUfbpf5R4Z39+aeMjVH3AnYedXxieI1h8G7qScBuPtSlHpDnQ1nsyqDLVyy0u7b0OL+AXSwRRywVRSqdzMuSm3Zd2jnUqx0siyfKWY9aZwJ2zjoqve2Vk5aAnYCdZ7/qyzFAP14jYFebzqd6da8HmPk+CNcG6lhP1j8dV95yJ7k3YK3P1xV7xq42YKftx2mam3bV6G2kGvk3622+t71q6M+7NAXspIFKJ2WxASvYXXnllQiHw2psq6xDl7diK9Of245PDzAyuHilb7+AXbQmHjttPxrsaEcU875bW1xI55n1Jm3Pq7ZXTjoCdpZBvRwlyjXzq/Oygt0VV1yBUCjkAQAL2NWmregBRgYXr/TtF7CrrcdOA501pH3Nrz7Pm/LodidTsd7os3wbE7CTBiqdlMUGrGD3+c9/HiMjI0pPPFZ+oy0H7PjlCfMCxeU39vLz3Yj3ZD1VUleNWObq5dlzsEvP/eIEZ3wpeoHinu4w7rrjfVx00TO44+5mdPeeRjwRRyIZVR40c568t21tP05h9XTtfVlqlVfqihAsYFfvOhSwswzq9a4QuX+tOiHn+1jB7pJLLsGhQ4fUp8qSSXZcztcWPlYG2KUS6jNk/BSZfBu2XL3LdYXtsrh+zBDFbabHv7KfsSsIdjH15YnunjDuvPN9XHjRM7jz7mb09J5GIsGvUtQC7IrrpFKdzr/rBez8UqcCdmUP0tLw/WLEXufDf2BHINTTQew8xfZEB7W1gXqB3R02YJcSsPNpHyBg55d+ScBOBkmfdhK1HbjMDdJXYJdMACkBO3P9yHbt20ZNwS4RzXrs7rhzNz5jmopNJuIQsKt9/btrcwJ27vRU/foTsBOwE7Cz2ICAXfU7Hr90gJIPd3Vdc7BLJdDdE8LtAnYN1D8L2PmlPxGwswzqfqkYyYe7AacaehKwq5/uq1Gfkmbl9SlgV7kO578dCtj5pY4F7ATsGugXYW06V7+BXTqlX5zgc3bsPGujB7mP6FnbgICd2IK2BedQwM5ZN7W1HwE7GSQFFCw2UAuw27U7gM9f9RouWvIk7r1/E6amOHRyWZM4kMoIn69LJmCAnYY7ATu/dJ4LKR8CdrUdmBvTtgTs/FJvAnaWQd0vFSP5qF9H6jewQ2bJE1nupH42sdDbo4Cd2F7xNiBgV1xHtbEjATsBO/HYWWzADuwOHz7s6Tp29NhddtVr+BfXHjtZ7sQvneZCzIeAXW0G5Ma2LQE7v9SfgJ1lUPdLxUg+6teRFgK7RIJTouXmjXCWQCoNvL07gMuveg2fXfIkfpKdiuWqrVzeJDcVm04mkMo+Y2c3DatX8C83T3Jd+fW5cHQnYLdw6rr89iBgV77uvLUvAbuyB2lvK8IvBiH5SCvP3ObNm3Heeedh0aJF4Jcnjhw5ouL5uSOCX3l6yge7Ly59DRcveRL33aefscuAXeY5Ow11Btg53VODnfE1gPLyJbYseitsAwJ2hfUj9kP9CNj5xQ4E7ATsyoSU+dvR2XnsNNh55bF7Z3cACuwWG2A3rV6e4Gea6BGMI50iQBreupT66oSAnV86zYWYDwG7+dvfeWfPAnbe6bIyexOwE7ATsLPYgB3Y6WfsagV2qXQO7Aq/NCEeO790pvM5HwJ2lQ2089k2cmUTsMvpor72ImBnGdT9UjGSj/o1DDuw89pj9+7uAK5c+houyXjsjOVOch47Abv61b+0vbm6F7CbqxOxE6tONNjJi171tg0BOwE78dhZbKAY2PF4eQ3XeMYunQZ2vxfA0itfw+LFT+In5mfs9FSseOzK1LF1sJH98mw1X28Cdvn68EKn8y8NATu/1KmAnWVQ90vFSD7q15HagR2nYpPJJPjyRPl1kw92V2XAjgsUT1qfsROwq0DP9bOd8m3D33kWsPN3/fjD7jTYyWLq9a4PATsBOxlALTZgB3beTMWy42OnB7z/XgBXZ8Dux/dvwsQ0h87cVCxfoNAvT8gzdjKo1nugELATGyxugxrsZCq2uK6qa08CdpZBvd4VIvevrsG70W8xsCt/KlZ3fDmw4zN2hcGOnSSvc9KLvDzhrBsnnUl8qToTsBObKW4zun8TsCuuq+rak4Cd44BZXcXXu+Ll/s71awd25qnY8sBOd3oJ5Zj7IOOxs4Jdes4zduwkrXk1g14twY73Nd/bmi/Zn1tX80Mn9mCXxsDAAJYtW6bWe7zgggvQ0tKiHlngYwvOujDb7NzteCKKZCqB7p4Qbr9zNz5z0TO44+5mdPeeRjIRRyoZBb3Y5j/ne1Wif23v1rCSNOfztdSTQF11bLE0uxGwmzNolqZAP1Si5MHbOnMCO8ZzuZPCYGcdqHTe2OlxGtYMdq+rt2LpsQtkpmLzwS6ZuRfTNKejBxrGme+nz6lGKJ12rg6qoV9/p5mDKD4uwLymVDg4OIjly5fPQ7Az27uGFR3ymL/rq375M/dNoqN61YOAnTRQ6aQsNmAHdu6fsTODlt7WgwRfvIibPHZuwI6dowY7nQ4HGD246Hvoc6rVmfKeBpgWfuavWveXdOuIzDCJAAAgAElEQVQ1SPC+xh/rQNtgAkAKw8PDuOaaaxTY/d3f/d088djlypizeW37DNkWxB5FB/61AQE7aaDSSVlswAns2JEVnmJiQzeDlt7WA4Uz2Nm/PEGPnU6ToYYrATsZVGo7qBDsDJ3T9gzhL5ShoaEs2H36059Gc3PzPJiK1e1Vl9UMdQJ20vZq2/bK0beAnWVQL0eJco3/Db2UOqo22BH+jGfsDI8dlzspDnbWwYb71LuGRz3wVqsu9P31wKbvX637Sbql2Gy1zy0Ednoqdv6CnQY8cyj2aWdzOTsR/djpp1ZxAnYCduKxs9hAVcEO9NoZb8VedeXrxgLFBdexI0AR2hhahZ2ngF2tOsuFfJ/cgE24MeDe6rE7//zz0dTUNA89dvpHjLn9Cbgs5Pbg97IL2FkGdb9XmOSv+h1qLcDuPfXliQzYFfzyBAfSQmUWsCusn0K6k2NudZcPdobnamGAnYY63c7EZtzajJxXP1sRsCs4aNavYqRR1E/31Qa7VBowvhVrTMUW/6SYHlzsdKIHHIZ2x72KYx7MU1GF8uTVPSWd6tape/3mwI71bsj8BzsnG8/pQOsiF5rbiN62O9+97v1iA5KPxqkzAbuqDoaNYwjSaHN15T3YMW128nGkEQfB7p3dAXxx6eu4ePGTuK+gx67YM20CdmK7Odutli5yYJe718IDOwIa2zHbpG6XOX2k+aITvyNtEvYlRjyPZSQ75jiBoynN7Ln+jrOzj2rZoqRb3BYE7Bqk4YgxFzdmr3RUHbBjJ56YC3ZLnkRhjx0HkkIDQK3BTg9ohfJUu7ryqs4lncJ1xoHb/Ed98W/+vxVLO9dC2+fiyIZALV2k2yfApf3mSOYZWPW1QKqM56gxh9fpawvrvhFsk7bAfCqQlTG1yrMnxe1FwE6MsO5GWKuOS3c+xe7nBHaML2+5E90Q2ZEn8jx2n13yJPhW7NSUyh3g6ssTOj2GtQa7+TUgFbMFOZ6zNVqo8WfEaY+dfit2/nx5giBntNWcd45QxxefIgrswIXGU0kglYJq0Ma6zVRJvqgIrbfMsaxnT3vwNOxRr/KDSdpcrs2VqwsBOwG7BQN2bhuJHdjxk2KM55cn3KYz97wk+GUJTsXu2h3A5Ve9jouWPIkfcbkTR7DzS0evvRY6rLzzmasfL9NslHx6WeZapUXd8pNe+evYmcGucDsx/xiZu13fT4oZZTPAjiAXy3joGBrbBtSllfcNyTSQ5GfOZpBMBpBInkUieQqJ5AkkEkeRSBxBMnEC6eQokJwBkgmAquP6zgwzXj6uV5lKcd1K42sz7Guq2z5qZStyn3rUo4CdgJ10IBYbqB7YpRTYcSx46/0APn/Va7jw0ifxHw/kPik212MnHXzpHaN5cBb9la4/p8FY65U/bowvTzhNxTYm2Onyaa+09tDRS8ftJKCENMYvyMwC6VEgPYRYbDdCke0IRTciGH0JwcgLCEaeQyj8HCLhFxGPNCMZ3YVktAep2CmkYyEg8f+zdx5gchTX2l4hJJEMGJxINsk2GBuTg0QUikgI2799jTE5Y6JxwIlgX99rrq8DDkQBkhCKoIxABEkogiSUpc1xdmY25zDTab7/flVTO72zM7O9u7NRtc9znurtrq6uPnWq6p1ToR0Bd0zSsRXY8ZOFFOYhWTno81o3qW1Ag52uPLoBibOB3gM76bFzg93oa57HbzTYpdkG3R20Brv0dYJuvcY8dmoo1r1B8eAEO3aWfEfpRhPTJhCGIzx18tu4iBhApBYRJw8RZxMc5y3Yzr8RNn+LZuMBNBl3otG4GY3hG9EU+gGaQ99HS+sPEQrdBiP8CMKh/0S45TWYLWvhhPMBq154/CI2PXUEOjMqGuzSZ7epIWgoPkeDXVynPhQLWb9T1yp2X4LdpeM02PWOfSoI0WCXPv0qnUqPlhqKHWpgJ1ZAiKFQB05ECnUooa4cjr0FtjUblv0ETPtGmM5VMJxvI+ScjlbnZLQ4J6HFOQEh+0sw7C/CtL8E0z4Bpn0aDOtchMKTEQ49DDP0IuzwOjhmMSJWEyK2BUcAnhyS1fPtutZup8/OB/9zNdhpsEuzt2TwV4o+B7s/6qHY9DfKCkI02KVPt0qnHIqNeey+973vISMjA+4vTwxOj518PzGHTmxnQqhje8bphCbgBBCx18Gyn4Np3Q/TGQfTOQNm5IswcTQMHIEwDkUIhyKMQ2BiJGyMgIODYWMkrMihMCOfhemcAtO6FIZxI4zQ78UwrWPmijl4EeG1c6JDsdprlz7bHfz9Uld0ocFOg50GuzgbSAR2RUVFaVs84R6KFR47DXZptkEFIOwYNdh1pUNIHdet16EKdlZ0/hzn0HEPOs5/C8G2SmBZ78I0/xOG9R8w7PNgRo6DhSNgYVSbEOYolpARsDE8KoS7EdF4h8OOHAvTOQ1h6woYxsOwQvPgmPsRsem5i+59F9cupS6bAwtctC5Sl7cGO1150typpja4wVAh48Hu6quvhga7wVKu7eFDg126y436laKGYoeexy66SMKJwLYMGEYBwsYShIzfIWxOg2F9SwyvWpHDYAtv3EFtAGdhOCgS6Hh+GCwhPFbC64S8w2E4xyNsXoZw6EGYoTdgG7mIWCGxhYqY6qf7J90/dcMGNNh1Q2mDAU50HrvfocWD3VVXXYW0bneC2KpYPceu++WU2MY12CXWS7r1LDdsi18Vu2jRIrHX4+AcipU6EmOv3GvODsM0fGgNL0WL+ShC9pUw7K/Aco6G5RwBO3JI21Arh1ulDIeDg4QQ5CwcBDMqPOY5eZ1wdzDMyCEwnM8jbJ6LcOgeGC3z4BgFgGNEt0JJf7n1lX3o5/Rf2Wmw02CnfxHF2UA82I0dOxalpaViKLbzDYpTVea4VbHT3gNXxf5Wr4pNow1qsOvNDlVttctn8I9gpxZPfO1rX8OSJUsE2KWuJx33rnNvtN2/+9hxkQT3lzPhWD4Y4XfQEv4dWq1rYES+DCtyOKzIwbAiI2BThMeOw6wENYIbwY7CcwcL750Eu2HCe0cPXjz4MS3T/hzC4YvR2vwAzNBbiDjBts2Pe7M8ddqp2uvBe02DXVynrg198BpzusouHuwmT56M+vp60WHxWmfPYZzEwjlfltjTdPXGGoyLgh33sattYDfJHkXtcM9tD7j9QefP6yw/B951N9xp/aWr/CXUxdqH+KFY9wbFgxXspLfORsSuQ8TeAMN8Eq3meIScL8Nog7qDYEekx0156WLDrBLc1P9yGFYOxxLqlMdOXbcjw2BHDoLljIJhfQ6t4fMRDv0ctrkesGsAx5KfKdP9VKftbrrsfCiko8FOVxhdYeJsgDC1bNkyHHLIIWK135QpU9Dc3NxDsJP7VHGjUy6eWL2pBtdMew+XRjcolmDHvbK4EaoUDXYxiOh6Y0ug01DXdb11pvMYNMeD3aD32LH68bMwkVY4Vi5sayYM6wcI2afDcD4DM8L5cwrOhiMCKfTQSVDjtYwkIr15Mc8eATBDiB3JgBU5CIZzCML28Qgb1yMceg62uQMRpxER8VWKzspFX0+/rQ9enWqwi+vUtXEMXmNOV9klAzvlhevsOSpe+7Aj2I11gV2N8NhpsOtMt/p6f9ZPBXWdf3liUHrs2sCuCrb1AcLGLxC2z4UZOQpmZKQAO+lxi0JdhGFsPl17qONw7Cg44JAtwY/bnsjtTyTcxcCOsGjiYBiREQg7n0HYPgctrXcgHJqDiO2H3LxY/1DRdd973ddgp8FOe+zibKAvwO7DjTXQYOe9odKN+kDQlQK7zjcoHrxgxxkRhXDs6TDM78Nwvgwbo6L70B0MR8Cc8tYd5AI75a0jsB0JwzgJ2VlHobr6C7DsY8Qediodzr2T8+x4D4dph4stUowI4W4UDOcEtIaugBH+b0TsTERsI7qvHfU/EOxA52Ggl4MGO11RdGMRZwMa7HTDPdAb7v7JX2KwS7TdyWAEOwiPHcFuJ2zn1zDtS2BFPhf1vI2CHRmJSGQEEPXU0VsHEO5i3jcCWyRyGkKNE7DsrROQm30WTPM0mDa3RpHz8uSCC3r6eB+HaLnIYpSAO7EHXuQIGOapMMP3I2JtAuwmOd9WTy3QfVVcX5WsHdBg51FRyRSozw89CNBgN/TKVNfTdJSpArvEQ7HuL08MXrCzAGyAad8DwzkTVuSoqMfODXYHi/l1wPDEYOd8C611t2DBrNORufc8mMY3YNmHR1fFyi1P5OpYgh2HbEfAiUivIIdsxVcqnM/DCP8Qjv0u4FQhwlW6uq/SYOfRBjTYeVSU7hjS0TEMjjQ02A2OctJ1sq/LSYFd+6HYwe6xU8AkPHaRFgDvwLB/gLDzZfFlCQFa3FA4QgCj10567iIg4NFjF10EIcLhcMwLEap9DEvnXYiczNEwjLNg2odGF1XI4Vc1H8+J0MM3QqYZ3QuPnj0rciQMcypsex7gFCMSCct1Hbq/0nDnwQY02HlQku5A+roD6d/npQI7L7bA+ztK+8UTH26qwdjrY6ti9eKJ/i1zL+Wq47CMCHdS4lfFDlaPnVgIy430HAeI1MFx5sOwJyEc+RwscBNi7lsnhWBH75qUkbAjB8N0hsGwM2A4wxCyRsGyJqC8+DE8+99nY/3qbyLU+i0Y1hEyjp0B08kAV8I6FGcYIhzajShIlMO6Ng5H2LwG4fALcOwsCXbMnu6vtA482IAGOw9K0pXpwOp0uwN2vEfZSUeokx/15vYlarsTvXjiwLIpZRtDKYzfoPirX/0qFi9ePOg2KG4Duwi/D1sG234FhnOZ2LdOzYcTe81FV7fSg8cVr/ykmGEfBcM6EZb9LdiRC2Hal6O87DvYvfVWrH77B9i05lIU552DlpazYdtnwHZOh+McD8c5HI4zPAp2w6KeP4bK+3coQuYYNLf8CZa1DZFIi+RO3V+1tbNDqS6l+1002OmKMuQrSmLQinnV4itVMrBT8TpLL/H1OI/dxkT72A3NDYoT6yOmf3Vd6VeHAxN65Qba4rMMwmunPHaD/csTMbAzAPjgRF6AGbkYhvDW0YPGTYSHib3m3N+CtXAkTOs0ZO0/FR+8+02sXHoB3l1+Mf71169i3fv/DyXZD6Ng7z2Y8dzZmDvjK1i55MtYueSL2Lj2aFRXfhYR53BEHA7FKrBTq2w5XHsoQtZFaA49CcvehIjTrMFO99We+2oNdtpYPBvLYO1wFTikCt3vxniJNihOdX/n1yTYOWqD4gPoyxOd6yYGee5y0McDEfDk/LpIxOZuvuKTYmqO3WDdoDgGdmEAJbCd52E4F8EQ34JVmwgT7OQXJExkgMKFFZw/FyydgP077saOzY9iz/afYunCa7Hhw2kozXkUmVsew+JZ38f6VT/Czk03Yuem7yFr12jUVJ4M2zoacA4GIsPESltwODbCrVAIdqMQss5Hq/Fb2M4GRByujNVDsbpN8NYmaLDTYKfBzjWMyoajr8Bu/AHyrVgNdt4a44HfaanFE2pVbKQd2A2VoVjTnI6wOQaGcwRMfu5LfBkiCnaRDJgU7j8XORyGdRJM8zJYxk0wQ/fAMu9DQ90j2LX1Rkz/x+VYMX8qfHn3I9x0F8yWG2C2fA9m6+UwWk+EbR3eCdhdCMP6T0QiW7THTvfTXeqnNdhpg+mSwQz8zqdjJ+oFLNzv1VtgZ/Pbry6P3fjr3sOl457Hb/5zKeTiiQN7KJZ6d5eDPu5oy/2rEzfY0WM3xMBOuMT4Tej5CJvjEHaOFl+DkHBHwOM3YpXnjp8XGwUzQvg7FmbkeBiRE2E4p8Bxvo/qwC/xwl/Px6a1E9HcOBWm+TWY1hdgWp+HZX8Wtn0YHGcE4BwERCj03NFjxy9U0DN4MMLWaNjOvwDsQ8Rp1R473Vd7bh812Glj8Wws/dupdL+TGyhgJ779GgW7NRtr0AZ2f9Rgp8posNrYgZFvBXZDa7sTVXZyu5NWACth2NMQsj8vvgQhvhHLhRNC5DdfCV4Wt0DhIgocBoOrWHEoDBwJB+PRUvtbLJh5ETL3joMRvgimdYRYPWvaB8Gyh8N2hiPiDAccDsMqsJPbnnALFCsyEmFzLBxnNgBud2Lo7U50X+25r9Zgp43Fs7GoBnCwhQoaUoXud2K83phj5/bYabCLzatzl4u7HPRx93/M9I7uDgSw4wbF62DYNyFkfwVG5NDocCy9dVGvHfeZE2An4c4UX40g3I2EiUMRweVoqfsp3pz9TWTtO09662x697jVyTBYzjA4XDAh5tYpsBsuv2jBOXaR4TBt7mP3XTjOSgBViEQ4/K3n2PWOXQ+0etbz/Giw02CnwS5uCLA3wc7WHrsEe/zFIE833D1v1HtPhwrs1By79osn0rqPnW1hz94WPPDQRoy+bDoefGQx9uwLwrZMOHYYcvEGN1yRf+l4Z/lJMa5Q2A7L+SVC9nkIRY6ECQIdV8ZGQ/EZMH4eTIr03B0iYI9boUQi5yDceBPeWXI68nPPgGWfDNMeKfav4x52nLMn9rADV8NKAYYByBBfsrDFNiqnwbJ+gkhkExBpAATYDWTb0HlLhw2mKw0NdhrsNNj1EdglHYpNMMdOzMXjnLy4vKWr4vdlOm6PXGfHfZkv/ayudsYK7Hp5KNYMw46C3YN9CHYR8a1YusUKEMHLCNvXo5Wf9hILJeSmwoQyfjVCfeeV33p1xBcjRslPg/HzYM7JsEJXI1hyHhrqzoTtnAjLOaQd2HGDYvX1CbFZMTKie9hxDt8XYTrj4Th/BZAFREKAYwP6W7FDvq9KV5ukwU6D3ZCvLJ3BRDw88f/eGIpNBHajr3kev3WBXQRygYUGu65Ch46frk4hdTqEOynxiyfS5rHrV7DjmpBKAO/DifwCZuRbMCOHwBQeO+ltawMyKDjjvDt+4/VgGTpfgG19E7b5LVjmyf+3AOJYWJFRco6dI788IVfayvTENirRL1twi5Vw5CxYkfsQwVsA/IBjarDT/XSX+ukML52ejhMbKtK6GHy64AfJOxN3uTLu0qVLccghhyAjIwNTpkxBc3Nzp2mkfoYF2zZhOwYsJ4LV66sx/rpVGH3Nc/jdH5agpp5gwg7ThOMYQkR8m/vfDT6du/OcWi/ty8Z9nz4e2OVOAMzJyYHax47bnSxatAiWZQlJXn7cUigmthMBRZ0zzBAsy8TuPS2QHruX8eAji7B7bwCWacC2QpBfcYnBfPJndUGHdgQRIS2IRHIRicyEE/kuTPt4GPYI6XETW59I753wutHzJlbK8vuu/OzYCFjOZ2DZXAH7BRjW0TCsw2HYI2HYw2HY8vNjYkiWw7IC9IbBcA5GyDkUzc6X0GJPgWn/C46zDRGnFhHbQsS2EXEGf1uQlnIa5O1hX+hAg502kkEPDp1VFC9g4U4jEdg1NTWlHewmXLcKY655Dk/8YQlqFdg5JiK2IcQR84nS25h3VRduvXT32MszVZzuPkPf1wWA6Wabxx8ejoAL2iSHY512YMcNivlJsc7BjulIkCPQ8YcORQFeyAzBFGDXigcf2hydY5cusIsBpMqDCiXUEe4IUbWIRD5CxPkVDPNSGPbnYBLaolueEOa4AILS9lUKBXaRUbCcw2Da3OfuUBjWqKiMiMIdV8YOg8UVss5w+a1Z52C02p9Dk3URQvYvYDvvIeKUImI3I2KzTbA02HXTbg/EtiFDNag6bO850PoYOvpQHU2q0F3ejOf22F177bVobGxs67BSpZP8mgnLMmDZYVi2g9XrqjBh6ipcNvY5PPH7JaipjXaatgHHCksxDTimBcdKX1kkz5/0sqjrbn309Fil6SXs6bP0/emzlcS6NGHbhhB6zbKzs6E+KaY8dqZpgpL4/lj+LNuG6RLLsUFpNVphmAZ27GrB/Q8Q7F7FAw8vxq49fphGGJbZKrzf7g67s2fJ6w5sO4VYDpw2CcOxC+HYi2AaDyFsXgDDPgaWc7DwsnFlK71tFDu60tVyDoIpQI2wdjBMewQMa6QL7Hg8AqZ1MCxruAA70x6OsH0QQtZhaDXPQci6H6azAI6TD8dqhmOFYJtsD9guUKf0/Md0qI+1LhLZgAY7j5VEdUqJlKjPDezKpcouVeguQ8brTbAz3WB3tTewczzaqfs9Eh2n0oH7WqJ7u3vOnW5nx919hr6vL+pgdDpBG9jZPQA7mZZlm6CYDB1LiAK7T3e04L77N2P0mHSBXSodxYCPdc2xufq2Fo6zH7b9BizzThjGOTDsowS8Gc6w6Jw5At5BsB163wh2Sgh3I2BymxP7UCnWITCtUbCskbDskbCcETCcUQjZRyNknQnDvgWWMxOOsxuOUwuHP/LUDz07DNsiUGuw03U9lR3LaxrsPHaYqkPSRtW5UQ00HamySxW688x4fQl2v/PgsdNgN/jszm1TQ+PYDXacC9oe7Lh44q233hLeutQeO3c69GIrsJNw1xJuRdg08OmOVtx7/8cYPea1NHnsvNqQFQMqqwmOnQlHwN3dMKxzYDifRdg5GOHo/Dh67+i1i3nuCHsK7EYKmON2J5Y9QmxOzCFYeuo47y5kH4NW69sw7B/Ddl6CY++FY9XDccJyrq1Nz2FIiG1xtXDnntChYWtey0rHS1TeGak6O30tNjylhhe0TmI6GSy6UGWXKnS/C+MtWbKkbfEEh2IbGhraOqxU6SS/ZsA0wzCtEAzLxup1lZgw9V2Mufrf+N3Ti1FdwwbKgmi8TQ6/hGAbYdiGCdvk+fToPXn+5PCZuu7WR0+PVZpewp4+S9+fHjtJrMfodAJOKYh6j7KystqGYgl2b775JgzDEJI4DeZPpsP6YFmsEwYM24ApxERTqAUhIwx67Ah2l46mx24Rdu0phREOwTRaos+Pdeodn2XDsihe9MH8KFHxo/VO1L0a2PYu2NZMsbecYY1Gq3kcWsyRCFnDELYzhBh2Bkx7mIA2OQw7CmGTcogQ0yLkHQTDOghhexRarS+g1ToPYetmmPazsO11sK0y2QZYUfjlUKzVKsQSi0qoe+ZV5VOHWhcdbUCDXRcriLtz0gbV0aAGok7cZZbs2J1vxtFgl76yTabzROfd5aCP01cG6dGlBDIxVzQNYEeoY1oS7MJpBDsFdW6wU+CWCIrc7+W+bsMi2HH7FbMetpUJ214My34ShjUVYesMMYzaag9Hq52BkJ0hVr0S7gybADccYXM4QsbBCJuxuXYh8yiErdNh2ONg2g/Dsl+Cba+HbRXCthrEJsyWaYsfc+KHngC7ECTYSZ2lpzwHmn3p/KSrXDMSNa76XHvvhVsf6tcoQ/d5fZxcZ/2tG3eZJTt255FxuLpPbXdCj119fX2bJyJZGqnPh2EYIRgmh5ksfPhRBSZMfUd47H779CJUVbNRM2XjbbTCooRDsMIGLIPn06Pf1HmUnhbGceujp8den5nu5/Y03/r+eJuLep25ajXqPXJ77E477TQsXLgQ4XBYSHL9yXQMo1Wkw+1NwsKTTW92GI2tzWgNh7BtezPuuW+z9Ng99BZ27fYhHGqFEW4W3m93J9j+WRZMUwnfgc9TeQ9Hj93vxmvynYRXXcSNXbcMC5ZhwDJrYVnZsKxVsKxnYVr3IWyNRYt1OlqsY9FiHYpWawRC1nCEzGFoNYahxRiBlvDhCJmfh2mdCNM6HaHwaBjmrf83RPsnWNYCWNYGWGYWLCMIy2iEyfoX5jMpYdkWGC3CUynzyfzG8qePtS7ibUCDna4gQ76R8AIW7orB+Brs0tdYetG/iuMuB32cvjJIjy7dcETPkYmegZ2EKQl2rTAE3IXRlADsftJjsCPQJYe31OBnweSPKyMkwEsAmLkTlrUEpvU3GNaDMKzvwLAuk3PwrDNgWKchbJ6OkPkNhM2LYVrXwrJ+BMu6F6b5R5gW9/vbDssoigIdoa4SptEEMxwFO8Idf9jxB54GuyHfT6Wnjso2Q4OdBrshX2EUNKQK3ZWK8TTYpQ8qUuk9/pq7HPRx+sogfbok3EmJB7v4OXapn0nvMGErDMMMt/PYxYPdJaNfBcFuZ5zHLnn6ylvHkDpUQJoI7FRcpWv1fur/WCg9aPSiNcMyg7CsLFjWx7CslbCsWcKLZ1l/+L95g7+CZT0GUwiP/wuW9QIsaw4sazksaxMsMw+WUQHLqIdlNMAy6kRocg5h2IQZItRRzKjnXnnsEnkcY3lMrhMd50DSTUZ8w6r/jw1HaV0MDV2ooaFUobusGU+B3bBhw8SXJ7iPXar7O78WQpir/QxODDfxwdpyTJiyEmOu/hd++9QiVFax4TVgcngq3CIl1AozFJa/4KMT0t357M5x5/mUw2jdSTvZPV6fyXjJ0tDnB15dZEdJj913vvMd8YUW7mPHxROhUEhI52UmyztshMViiTCHZM0Qmlqa0Bpqxafbm3Hv/Ztw6ehX8JMH38SOnSUItTQj1NoEI9wqwDDxM0wYhhIJkGIaBKdCCFF2puK4w1R6VvHC0rNm1MMM18AMV8IMB2CGi2Aae2GaW2Gam2CaG2GaW2Cae2GYxTCMIMxwBcxwLcxwY6yec2hZ1HlCHb11BDtThuJ/tgmMk+qdU+VbX0tsJ0NXLxrs0tRhHmiGM5je1wtYuN+H8Ql2o0aNAsFu6tSp4pNiXtJJHkeDXXLdSJjkdXc56OOB2PGwjKTwh0hmZmZCsGttbe30h5Aq37BhIGQYYosTroZtdIHdffdvwujR0/HAg29i584StBLsWvgjqyUKaYS1eLtRAMaQOozlOXbM8+546jiVzlUchoQ7gpjrh5iYH1cN0yyHaQZgmn6YZhCGWQXDaITB4VQRn4DG1b2U1uiPORfUEezahHlnfCXx75o4v7quJdaLsrmhHmZ4MQAdJ9bxaF0MPl0oD0Kq0F2ujMdvXo4cObLtW7H02KW6v/NrrQhxG4cwJ4Yb+GBNGcbTY3fVP/Gbp95CRSUbojAMdlihZimtLTBaQzBCPJ8evXeeT+ltceujp8den8l4PX2Wvj89dpJYj9EfJ+GWNvjvdsAAACAASURBVLDav39/G9hxKJaLJ1paWsQPIcJdqrIPh5leCKFwGK1h6bUj2DW0NKGltQXbtjXgvvvWY8zol/DAAwuxY0cJWpqb0Npcj1CoSeSBgCc84e3qh4FwWEkqfag47tBbfOaZeRf1VdTZVhhc2MG6G25GOMz8SWGdj+WzFSGRZ8aj55HCOs96bsQJn0FAlvru+J6J85pK5+5rics4cZo67uDSiwa7dg3C4Co8Xdm8lZe7MUt27NYl42iw86Zbt96SHSfTeaLzydLQ59NXHt3XpQI7woYcFuw+2Mk0mE4oHBKrYENGSAzJNjQ3orm1BVsF2G3AmNEvx4FdgwvsVDrd0Y8b6HjsLQ1CnRIBdwLKwvIHGH+EhcIIK+mQptKhC+xCCuzap8E9+2Jgx/fk/53nMVG9SnTOS1o6Tuf6Hog60mDnoaIMxILTefJe4RI1avHn3PrkNQ123vXr1l2i43hdp/o/0f36XPrKome6VKCRGOy43cmCBQs8eOyk91p5oujBag1z7mkrCHcxsGvEvfdtlEOxP3F77Ah29IIpqPMGPInBSMEddewtHelhlJ5G6pPedOFVj0Kd+zixvplv6dmjd8/oAHb03nFbF/V+KvSYv+gcx1T1jNcS522g2JrOR0/KJ6OzwtfX5dCU1sPg1QOHhDoTd/kyLj+N5B6K5ZcnOksj9fUWtHIbh1ATWkJhvC+GYt/GaA7FPvkmyiuiHQs7rNYmKS3NCLe0ItwaQthjY+1+j0THqfMY01Oie7t7zuszGa+7z9D39UX9jE4nCDWLaQUEoX379rUNxRLs5s+fL4Zhm5qaBOAlLntZFwhnnJ7QGmpBSxTuWsOtqGtqQFNLM7ZsbcA9927ApZdOxwM/WYDt24vR3NSIlqZ6tLY2yakNnN4QknYj6gnripAwwq0UpReVd3co75O2k+y8ut8dtorFHVzgwWdzb70w5xS2E5mPxHapnsW8K3Gnz2OZdscwPl7H/xPrPFa31fXEeeuYno43+HSiwS5NHaY2/oFr/KohSxW6y4/x3GCnPimW6v7Or2mw61xH7MwGrh3pvLUHkp6CHX/oEO48gd0DqcGuI1TFwI7gJQFKPk8CpYTKWJkSsNT1GCzGrrvtsn16Yf4YEz/I+KOM0iIhr59s2Us9Y5zE7+Z+T308WHWU4dUIdLyOv3i0TgaHTjiZuzNxlyXjctsG5bFTX55obm4W3ojO0kp8vRktYlI45w+F8N7qIMZPWYHRV/0Dv35yIcrL2Yi2iq0cuOpPSHMTQs0tCLXwfHp0nThvHfXj1kdPj70+k/F6+ix9f3rsJLkeoz9QBJS1Yu/evbj++uvFIiPlsaO3jouNWF8Sl320LrQ0Cs9bS2szmkPNaBHSgrrGejQ2N2HLlnrcKzx2nGO3AJ9+WoSmxgY0N9ahRdzbLLzgIeZFrJZVYbTOsN608JhbpDBuU1T4XArPhaI2x2N1nvFS2WJMBwJO+fwOeeC5VGn0Xjkl1nnv1vHk9tJ776mfmVy3Guw8dpiJKos2rOSGNZB0k6js4s+588trycAu/j7v/2uw86Irdzno44FavyTY8IdIz8BOglb6wK4JoRZKFLQEbEX/F+f4PAVvnFrRjNYWBXa8xnOUboBdO7AkYDZFYbLvy9BLPWMcXb/6vmz6Suca7DTYDfkK7qWhc1c4xifYufex4xw7L+kkj6PBLrluYt4Edzno44Hc8cjhSjfYcbsTLp6gx07NsUtc5qwLUugZ49Ym6fXYKc+dC/TouWvz2hHuFMBRx4QcdY7neZwKfCTYSo9fEm+dAMlUafRe2SbWeayOqeu6fvVeGfS3bjNUIeuwo+FrnQwNnagh1FShu6wZj2B3yCGHiCGmcePGwefztU0KT5VO8mtNaOY2Di2cGN6KVR8GMO7a5XIo9omFKCuPdjAcYmpukNLUiFZOQm9qRkt0GDhR+u68d3ac6P6hdq4zHejriet1Z3YQrzfCz549e9qGYr9KsJs/X0BdYxPtvRnN3NOug8TAjmk2tzSjqbUJzUKaUdtQh4amRmzZUod77lmPSy99CT/5yXx8+mkhGhvq0dRQi+Zm/tDiAo0mtHYmzc1opQiY5D2NaGnh/QxVXtQ59/nEepL3yGenfj7TTpZG753vrBzV9f7Im35m75W7W7ca7Pqh4rkLQB/3vqGrhixV6C4HxnOD3ZVXXik+ncTzau5QqrQSX+sZ2DU3yfl9idP23oEku3+onXeXpz7uvI55Kf94PdIrIcBumpxjFw92TS0tSCQEvVhahL+m9mDXKMHuE49gpwAvBmkK1twhn8n/FdgR5His4vB/dY7n3XmMP1bpxOAulgf3OcaLv7f3//dSlozTH3nTz+z98qeOM7wagY6XumPV+hm4+lFDQ6lCd/kxHnfQVx67yy+/HNyIlec5JJsqneTXGtHEbRyaOTG8Bas+8EuP3ZXP4ldPLECwjBWenrkGsZ0Dt3RoaWxACyehNzahiRId4koUuvOf6jjRvUPxXCod6Gsd66oXG4jXGzuQPbt243oX2M2fN0/WEy6g4A+hBNLU5n2WP3aamhvQ2NKIJiFNqKmvRX1jAz7+pBZ337Mu6rGbh23bCtBQX4fG+ho0NdVLDzi94EKiHsK2tDu+Y3Nz9MdVh3t4Xkmi++LPxaej8hAfMl78vb3/v5eyZJz+yJt+Zu+XP3Wc4dUIdLzUHavWz8DVD71snYm7/BiXc4XiwY7n6+vrO00r8bMa0MjVfk30RjTj3Q9KMe7aZbiUYPe7+QgEWeGb0MwOq7FOSkM9mgmSDY1opKR4D3f+Ux2nSmMoXUulA32tY131UvbxemMHQrCbNm2amLJw+mmnYd7cucJOGxob0cAfQgmEw7RNTdEfOk0NaGxqQAPhTkgjqupqUNdQj80f1+Cuuz/CJZe8iPvvn4utW/NRX1eLhrpqNDbWyR9K/LEk0ur4TvH5dT9T/MjyfF982rG8y3SYh0TCePH39v7/XsqScfojb/qZvV/+1LEGu36oeNq4+8a4lZ69NHQqLkPG12CXGiS96LQ/47jLUx93Xt+8lFW8HrsPdgqM6gUQ9T3YyecmB0LmrxGNHaQJ8VCaGOgU5PUPPHkpS8aJL0/9f+f1ZLDoSIOdBrshX8G9NHTuCsv4gw3svLyjjjO4YbW/y89dR3jcc7CTAOQJ7O5Lp8cuEdhJmFOgJvJET2IC4TUVL3XYP/Dk1U7iy1P/P4TAzqsR6Hi6UxisNsB5cZ2J+90YNxHY8XxdXV2naSV+Vj0auNqvkfOHmvDO+z6Mm7wUl171dzz+u/nwB9ioNKKJQ0wNtVLq69DEod/6BjRQPLyHjqP11Fs24K4jPCYI7N65C9Ouaz8Uy+fXUzh1IYE0NEanJXBqQmM9GhrrUd9UjwYhDaisrUZtfR02ba6ODcXeNxdbtuShrrYG9bVVaGiolVMbRBpMz0v7rJ5bF71X3ec+zzpah3pKU2JhfsW0ik5Dlb6XvKUvjtfy96az9OVLP6/vdJmhld13yta67h9de2no3GXD+L0Jdg3xYPeEBjsvZaTj9C+0uusIj3sCdhKOCFgEqfZgV+UCu7tdc+x6H+xiwMY8pRINdv3TlsfboP4/cTlk6MayfxtLrf/e1z8XPHQm7nJgXH7M3L14gh875/na2tpO00r8rDrUc7VfAyeGN2LleyW4Rnjs/oZf/XYeSv2soA1opCeivkZKXS0a6SGsq0c9xcN76DhaT71lA+46wmN2qrt27GznsZs7Z46w07r6etTRw51A6htYRvR81wovdn1DHeqUl6yxHpU1VaiprcXGTVW46641uOTi53HfvXPxySe5qK2pRl1NJerra6QHnF7wBnrDvbQjUa959Lmx+9R5ppVO8ZovL3n3Hsdr+XvTmffn6vQGjq402HlqEAZOgenK0/Wy8NLQufXK+H0BdhyKHX3l3/Dr386DX4OdBtcBDu7uOsLj7oMdh2oJPVJ43AHs6iTY3X3XWlxy8Qu47955LrCr6COwi+VR5VWGXuFPg128zej/u95/dUdnGuw02Hn8tds3BtkVI/YCbF7juJ/bV2BHj117sKtHY0PUW0evnfbYadgbwLDHOrNTeOyua9vuZO4bc1BfVyclgbeOHjzOvxPboUTbXgV2hDtKZW0VaupqsWlTFe6+2w12eVGPHcGu2uVd8wpQjEcok57CjrCmzjNOqjRVOqkAL9X9idtSr21VuuK52zx9nLhMBqteMtJlJDodPQTU1zbAhQzpEnfemea8efPahmIvu+wy8bFznq+pqenmM2tRV1cjOqTa+ga8vaoYYycvwegrOBQ7F6WlbFjq0MAOqy4qtTVo4NBvbR3qKGl8X52W1mdPbYB1Zsf27bjuuijYnXoa5sx+A3W1tVI4HJtAlLeOw7GUuvpa1DZIqWuoRUV1Japra7BxU6VrKHYOPv44BzXVVaitrkBdXbWc2sDpDSIdL+1vdDqEuIf3SWmor4VbvKUn867eoWPoJT+xOD0ti+7c727z9HGsLIaCLjTYDeBfxEPBwHrzHbrTmCW7x51PxukLsLt68hJcqsFOA+sgBXbWmVRg565T7Y6FN0xBVk0b2BHq6hrqUO4Cuzs5x+4SzrF7o1fATgCd2PSYGx9HxTMopg8GkrVLvXm+XZnofnBIjQ5k9Kbh6LS1V6A3bYALGdIl7nwyzXiw4zcxeb66urqbz6xBbW016uo4zFSPFauKMHbSYlxyxV/xq9/Mhc/HTqIW9XVVYjsHbulQX1ONenoIa2pRS0nj++q0tD57agOsM9s//RTXTZ0qh2KjHrvamhpQ3HXKfSy9W9KDTS92bV0NauprUCukFuVVFaiqqcaGjRW4867VEuzuI9hlo7qqEjVV5aitrRIecN5fV8e0vLS1sWcK7zk96GL7lLjQc3penuktTk/Lojv3e9OZt/zrtAaWnjTYeWoQBlah6Uoky6M7jVmye9w6ZRwNdhp8ktmKPi9tg3Vm0IMd4a6DeAXF9PUL/WFT7jZPH6evLAeCLjXYabDz+Gt34Bl+OhtDd2Vkun0DdkviPHacdK49duksV51W7wE660x3wE7WtZj3zJPHTgzFptdjJ7199PjFiwY7d3uojwde39dZmWTohq/3Gj6t297VLRcypEvcZcU0586di1GjRokhJi6e2L17t3hWVVVVN59ZjZqaKtTWcmJ4HZa/W4ixkxYJsHv8N3NQUsLGowZ1tZViny7u1VVXXYU6Dv1W16CGksb31WlpffbUBlhnPt22rd1Q7Buvz0ZNdbUQd51qfyynJXBqAqWmthrVddWoEVKDsspyVFZXYf2Gctxx54e45OLncO89s7F5czaqKitQXVWOmppKca9Mg+l5aWvaP1c9v2PoNT0vz/QWp6dl0Z37venMW/51WgNLTxrsPDUIA6vQdCWS5dGdxizZPW6dMo4b7C6//HJwjh3PpwPsamrrsGJVKrCrkHAXBbu66hoJdxrsNNwOIBtgnekNsCt3g90dH+CSi/+Ne+/VYJes7erueXebp4+HVh+f0V2j0PfpX/z9bQNcyJAucb8L05wzZ06bx27MmDHYsWOHeFZlZWUPnlmJmhpODK/F8ncKcLVYPPEXPP7rN1BczIaFk84rxHYOtdWVqOXWDlXVqKmqRjUlje+r09L67KkNsM5sc3nsTjv1NMye9Tqqq6qEuOtU+2PpvaYHm1JdU4mqWiVVKCsvQ0VlJdatK8Mdt3+Ii6Ngt2lTFiorylFVUYbqaum1U2nU1DDNztrk9s+N3SvzEfvfS1qdPatr13taFt25v3N9de0ddHoDR18a7DptDAZOYemK074svDZmXdUb03WD3ZVXXomcnJweeuyY9yrU1lSiuqYWy97Jx1XRVbG//NVsFJcQ7KqjYEeoi4KdGNZq/95dfR8df2Doz6u9Mt5ALLP4/DOP7cDutNMw+/UY2HEKgZhG0KGNdQMW60MFqmop5QLyCHb8AfXRR+W4/fY1uOjiF3DPvXOwaVM2qioqUF1ZhtqaeLAjnKXSm/uZ8SAX/3+qdAaGLQ1E+9B5Gji2ocGuQ6MzcApHV5TUZRHf0ST6vzs6ZDoK7IYNG4ZJkyahrKxMDMPyWnfSlPfEwG75u/nCY3fpFX/Fzx+fjaI2sKtErQBAQh4ltQ66nxedbl/rLpF9JjrX1/ny+rz4vPK+ZGBXU8WNhCXYdYQ7BVnSg11dW4aq2jIwJOSVl5ejsrIKH31UidtuX4cLL34Zd987Hxs35aCqorIN7Ojd5lw7/mCi169ahNWormkvEvgIbzJuzDMXD3Tq/57UcV2vvNqTjtd7tpIRX1n1/3qIJpUNiInRHB4cAMOCnO/mRVK9T6JrTJNgN3LkSMSDHa8luqfzc7yvAjXV5aiqrsHyd/IwdtJbGH3FX/GzX85GYXENqqurUMUhpmp3B6TtsXPdDg4debHV7ttX7+sgPv8sl21bt2LqlClikdFpp54qPHZVnK5Qyf3m5DQCMZWgXXsh6wKHU6ury1BVU4bKmgCqaoJiiJU/oioqKrH2owrcesdaXHDxi7jr3nnYsCkbleUVYii2prpM1CXWqarqSiGV1ZVIJLxe3SXpbh3v/TIYKnVBv0fv2ooGu3YNTu8qeygYc/LGuu91F9/RJPu/q3pnOgrsMjIyMHHixDaPHa91NT0Cm+xYCG1lUbDLxTUC7P6Gn/3yDQl2NVWoFJ0dwU7BXd/rtevvp/PoRWfJ7DP+vJe0+iNOonx6ArsObSzrg4Q6CXbBKNgFBOiVlZeiorIMaz8K4tY7PsQFF7+Au+6dK8GuogJVlYQ6BXapoY6gp8FO18/+qC/9+cyM+Mqq//fmBTpQ9VRdWQUl/a0DzsPxIl3NJ9N84403hMdOgV0wGGx7VlfTk/ErUFVVhuqqICqrqrF8ZQ6umfgmLr3i78JjV1BULTqgiioO+Va4PAzaHrun74GnNy+2yjgD9X3j8898bt2ypZ3H7vVZs1BJ+BJz4aJtRQfPOt+xHFVVQVRVBVBZHUBFNUM/qqr9CJblo7zCj7XrinHrHStx4cX/wl33zsH6jZlimLaiIii2PKnmFyqqmFYlKjsRGY/xUwnzpNIcePYzUO1C52vg2YoGuw6NzsArpIFUccSKN8LdANBbfEeT7P+u6o/ppB/s2AElA7s3IMGuAhWis9Ng19Uy0/F7v92Kr1/UefrALigAr6q6BMHyLJRXFGPtujzcdscyXHjxP3DXvbNdYFcmhnq73gaxDqYCO3WN8Xpfn/oZWse9ZQMa7HQFHrSNWHxHk+z/rlae/gO7Sg12uj4O2PoYX79Yr3oOdgS6ICqqZVhV7UOwPBPlFSX4aF1+UrCTHrgqVFZJ8V7HpYdPefqShxo6vOtU62qg6SojvrLq/70N72k99b+eKioq4EW6WlZMc/bs2W1DsRMmTEAgEGh7VlfTk/ErUFkZRFVlABWVVVi2Mgdjo0Oxj/1iNvIL2UFVoLwygMpKNSQkh4W697z+Lx+d76FVBvF1jeW75ZNPYkOxp5yKWTNmooKrWsu531xlm7S3BVkXKoWtsz4EUF7Jves4TcGPQDAHZeUlWLM2H7fevgIXXvQv3HXPbKzfsF/MdS0v57SICrHXXXllpQjbpz+09K7fTZdnV21Ag53HeVpdVayO3/uVMb6jSfZ/V8si/WDHjoxbOLDjSg12onMTYKfgrvf12FX9DLX43AxXS3IdqPKOr18833Ow80fBrhwVlbKeBAJFKCvzY83aItx2+0oNdrqPapvfrGxRh6n7hYz4yqr/9+YF0nrqfz1xvysv0tWyYpqvv/46RowYIbZx4KpYv98fnbgt37u8ogJdkYqKMpRXRL0TFZVY8nY2xk5aiEsv/yt++ovXkVvAjrUcZZVBMK6MX+56Bo/LUSGk/3XfVZ0O5PjcQkNLch2osmtf12ijFfjk448x5dprRT059ZRTMHPGDJRzu5KysnY6VWnIkHZMO/cLYb0oq5C2zm1OWNe4WGn1mhLcetu7uOCif+LOe17Hug37xPmyMnrPZfyyaD1sn3666oeqb/FhutLX6fROuWm9arDzOJynDXBoVxZ2WqqMuY8WwY772KlVsQrsROdGm4l6edRQkPrfHXYEvzIx1FpOsFuZjWsmzcfoy/8Xj/3ideQUVKK8skKAHQFOioRHdnrcjb+sPAgOQ1Xwk0tl5VLKh3a5qDJJf1iJynItXdEBoUuWA+tKFOw++QRTrpX72J1yyimYEQU7AXdJ21beT7CjBFBeEUSZ+OEj65XfH0AwWIbVa0px6+2rcGG/gJ16R/kjS/3YkmGsrUi/Xer6rHXacxvQYJe08em5crWBDh4dusGOx4nArixIsOKQqnSDuyEu0TGhL1hRAXoVKEHRgbEjq8TSFdkYP1GC3c/oscunx45gV9YWX90nwkoOVUnhdhJSKlHZ1tkOHl0PhHrRDmjKKlGpJbkOXAAsy05CD+e5fUKwi25QrMCOP4zkJsPJbLI9NJVX0OaDKBfTFSrhD0TBbq0ft93+ngC7u+55Hev7zGOn8qfgM1Go4W4g1GOdh8R1LEN4IDwOaem43ob+tJ4Gn57YEalyUx47NRQ7Yfx4lPp8KAsEUB6kx0w16gwTiwC58nIEy8sRKAvCH/SjNOiDv8yHYFkFli7NxvjxC3HZmL/hFz+fjbw8eueUZ473lQkQZBgQEkSgPCjSCkY7TtWBlpcz71q864Dezgot3dCBrCPS1mj7H3Mo1gV2r732mhgu5VCqqk8dQ94vvc8M6YmWP3o4XaEcpX6/WKy0eo0L7O5+HevW7xXng0FOi6AHW9Yvhh2f0ZNzKn8BlJdTVF7l/xwKdrcX6X12T/Ldv/eKdpEjCWkvj/59r8FYvhrstBGmuVEcnJXQ3VC3B7thmDB+Akp9pSgLlKE8wGHQCpSXVaCsrDyxlBPQCHRlLgkgUO5HWUWpuHfF0hxMGrcEV47+Jx7/2Rzk58pvZHIIKhiMwmBZAP4gobAMpWVSeEwJUAJSeI9sfJiGFk86YBkGtXRJB9RZeQXKosKpBps//hjXtoHdqXjttRk9ADsOyQbh8/vEDyE5FPseLrjoX7izX8BOAV0slFAX1GCXoN9smx5SNjj7gMEIcMnynKF+9etQDh9oPRyYeqCHQZU9j2fNmiUWTwzLyMAkeuxKilHOBRR+eu3KxARxDs0mlwDKgn6XlKKsjFBXivJgOd4m2F2zDFdd+k88/tgc5OeUo7wsiDJ/AGX+MpQF/CgLlCIYCCAQCMJPCQbFcTAQRFmciDwxX1q86YCQ7g9q8aQD6oo/aoLCY02vtZCyMmzevAnXTokunjiVYPeasFnarapPHUPWNV6XEizjj54AglEpKS1BaaAUH6z24dbbCHb/xO13z8LadXvEwopAgHUpCHqu+eMp3oPd8XndadOYx44SDHKYmBJrL9LzvO7kcWDd4257tE76t2w02MUNa2mD7F+D7C/9uxtqHs+cGQW7YQdh/ITJKCzyobQ0iFJ/GfyBMpTSi5ZIAmXw+YMoDQQSCPfoKhUeuWVLczDxmmW4cvS/8IvH5iInp1x44nylQfhKyyFDP0pKgyguLUeRX0qxvxwl4jrjtJdSP4extHRFBz5/OZR05b4DMS71VEr7DpShxC+9xhs3f4xJUY/daaedjhkzZoofH/wxkrwu81oysAuipNSH0oBfgN3Nt6/CeRf/E7fd09dgd2C2g8nLrHN9aLDrXEc90W9X7tVgp8EuRQM8cAy1K0bdnbjxYDdLgB1XxQ7DhImT4PfTMxAbeuUx5891EJ7v4EVQ98mVrRymXbE8BxOuWYzLL30Wj//8DRQWyuFbka5IQ6XDYdmYtL/OOFq0DvrHBmjHmzZ/jMlTporV41/+8sl45ZVX0gZ276/24abbV+HcKNitcXnshHc7Ws96x2N34LR93WkvE92jwW7g2EwGOzQtWgcHug3wyxLUQUAMdwYw67XXcOSIg3D2icfg6Xt+iG1LX8O2Za9g2/JXsFXIdGxdLmXL8umg8P9tQl7G1mVKpmPrMinblr0MysfLl+GFv2zCxKvnYPxlf8Fjd/0Na95cjE9XzsK2FTOwbcVMGS6fga1R2bZ8JrYtnyXk0+WzIGUmPl1OmYFtrrjqHh3G9Beviy3LZ+CT5TOwecVMIR8vnwmei4+n/4/XyUyhoy3LX8OnK2bgw1l/w+9uvx7/cdlZuPf/TcI7SxcgKKYQyL3oErcrrGu8LiUQ9MNf5kdASADFvhL4/KV478MS3Hj7u/j2Rf/ELXfPxOqPdqO0tBR+v1zIxOkIidPX5/tDL+7pIf3xfP3MmN1rsNNgqxvHKMyxYSDYBf1+vP7qKzjruM/ir7dejXVPfQ8bn7gOG5+Ygg1PTsWGp67DhqcYKuH/UjY+dR02Pjk1gUzBpicnY9OT1+K9px/Enx6YgSlXvobvXPYMfv7dn2Hpbx/Cut9/FxuenooNT1+PDU9Pw4anKNdj45PfSSkbnrwe65+chnVaPOvgoyevw5onpuLDJ67D6qeux5onp+GjJ66L3q9CrVNpU9THVKx/8jqsf2oa1j99PdY9zeMpWPe7SVj9+DisenwiFv76+1g95x8ozN7T9iMpcWfbNbA756J/4ta7Z2KNBrsB3VZrsIuBVWK777vrGfRUaNE60DYQEBOzuTmqv9SH2dNfxvnHHYnZd16M/D+Mxe6Hz8TuR87A7kfPxM5HvuGSM7Hz4Th56EzsbCdnYOdDX8euh07Hroe/irWPTsWfbv8LrrvyRXx39B/wm6n34v3Hvo/tj52NnY98DTsfOQM7Hz0DOx85E7se/gZ2P3xWCvkmdj18Vsc8xOdJ/99BR5mPnoWch87E/ntPw/6ffB37WK7U0yNx5XnA6+4M7Hz469jx8BnY/siZUh7+OrY/9FXs+emZyP/dBSj845X45I/TsG3+n1GctR1c4MD96BK3K9zOpLRN/IFSsVjCHywFvXfFJcUoPPdLVQAAIABJREFU8fmw6sNi3HjbOzjnomdx210zsXrtLvh8nOtaIn58Bf3J0tfnE+u9d/XCBTMsE7ngq3ef1R/vN5ieqcEuaeOjDXMwGXLP8xpdeRoIIlDqxxuvvoITRg3HlJMPx4ybz4Jv1v3wzXkQvrkPwzf3EZTEyxsPo4Qyh+K+/mg07sMomfsT+OY/hNyF/8CsZ97FpKtfwsTRf8BTtz+J/XOeRcmCn6Fk7oMoEc9g/Efgm0N5FL45P4VvzmMdZe5j8M19rP0z+fyEEs2jyuuBGs5+ECXzHoX/uduw8z/OwNJzR2L1905G7t9/CN/8n8oynPsoSuZQHpHl2kFXPN8DSVg+ycptIJx/KGbbwsYfRMmCnyLnxTsx84Zv4vELPoM/XP8trFn4Mvwl+Qj4S+APEOCUuNvT9mAnIZAgKKW4pEgA3HsfFOPHt67EeRc9i9vjwU6kGxDwmBwg3c/Uxz1vI7UOB4sONdhpsEvyq/pAq8RyKxGxrYg/gNdnzMBnRgzH0cMzcPPEixHc/zaCee8hmPcBgnkfJhF1bTWCeUrWRI95bRWC+e8jULATS97ciWvGz8Dll/0XnvjZiyjdtwvBfMblM1T6vCdRmiptd6ju8RqqtN2h13sHSzz3uyk9fohgzioEc1cjuPxF7Jx2ERYedzCWTfomMuf/BcG8jxDMZVylW75ronTU9QMlVGXO9+Xx+wjmb0Dm6nm459rLcPzIDFx8+pcw55Xn4S8tERII+CCF3jl3e9IR7KQHj/FLURIFu/c/KMbNt67E+Rd2BDsCI4GOq8812Ll1q4/b29qBqY8MfgNTi9aBtgEOxUopLfVj5muzMGrESBw8LAPTJlyFQPFOBEp3I1C6D4HSzASyP3qN15XwnJI9CJTuRMC/C4FAAZYs242rJszCJZc/g5//7FUU5JQgEMhCwM946v74UKWVKIyPm+z//Qj490lRz2n3f6K0e+mcn3lJt2TG0lTvp0L1niW7ECjZj8DKRdg1dRze+uLReOvaK7DrrdkIlGYj4KPu+M5Kh3sRKKWo/9X1TvTi248Apc0GBvNx9J3FO+1DwLcHAX8+tm9cje9eOx4HZWTgq185Ca+9/BJ8pSVC/PTaCfHF9TFyAQQXQcQLQZBgV+IrwfsfFOHmWxTYzcDqNTtRUlICn4/ploovVPj8fhHq9kv3YdoGYjagwU6DbVyjGzOOA6uiuMEugBkzZmPkyEMxbNhBGDdpMvJKilHkL0EJO55E4vehJCrFfh86Cu8thi9QBF+gFAuX78ZlE17HBZf9Dx762Uzsz/HDJ9ItSXBvovS6eS7gQ/EAkqKAD70hKd/RVwRfSTECK9/Bnmu/g8WfPwnzp0zDtsWLUVJaisJSqaMSlnc7iZWxKuuuhG6bKPL3znt3R5fUVcr7ovbMd/VxjzkhEq42bNqMyddOEdudnHzKqZj+yqsiDuEuBm0EOXe7khjslHfPDXa33LoSF1z4D9xxlwa79jp061Mfa920t4EMLh/XonWgbcAPeuooPl8pZtBjN/IQZAw7CNdMnIT84iIU+4vF5qncQDWVsPOTUgpfqRQZvxilpUzDjwVLd+OKCa/josuewcOPvYbMLHoeGJf3xu6Tx374mK+Ekuye+DTU/ypvyUIVr/dDQlT6JVY2qhzcZSXOFRfBV1wM/9vvYM+k67HkcydiwbXXY9uiJSj2+VDok3AtPU/J9NT18yofxQTHASIqTyX+UghJYdu0RX5aj99NLqXXrLQU6zZuxKTJ8ssTXzn5FEyf/orwttHjJgFQgaC7jZULILgIIl7o4SsqLkRxcTHee78QEuyexe13voYP1+wU50tKWI+of2k/Il+6H9P9uLaBNhvQYKeNoc0YDmy4iwe7mRg1YhQyhg3DuAkTUVhcBH7qSHaEyYEkdSfDjkyC3cIo2F085k949LHXkJWtwM7dIbIzjOUr+bG70xx8xwSEdEqndlxcjNIo2O2dNA1Ljz0BCybHwK7AV4xiv4IOCRAs1+6Kyo+6P/0wm9weUz1L5UflL1kZtLvuK4Xf54O/Dew2YNLkyVGP3SmY/oob7JLZYjKwI7CVoKioQIOd7pd0v9QDG9Bg1wPlqQZPh8ka8MF5nlsqzHhtBkaNHIVhw4ZhwoSJKCouTuJNa9/hd7QFdycmPXb0vBHsrpzwBi6+7Bk88tirUY+dDz6/jCM9GbxX6bAzwHM/R0FJLKT3SXlQ/KJzZgedSKKdNjvuQSfMe6J3kueULv0K7Fa8g70Tr8fSY07EvEnTsOWtRSguLUFhHNip+3oaEqQUaCmo6u9QvZOAuhS6E3oVAB6zM85zW78hBnannHKK+PIE58FRVNodw1ga7T12icFOLJ7QHrsU+lRthA472tqBqZMMdmJatA60DcRsgJ0SP2Y+cuRIAXbjx49HUZHcgqHreuJk72L4OK/LV4RSXyFKfKVYuHg3rhwvwe7hn76K/VkERHoEC6PxGJ/38X7mrRS+khQi4slnqGd1DIvFEFppiQ/JhXGYz0EoHKIjUKR4P+qylGVZVITS5e9g74TrsfTYkzB34jR8snARinzFKCgpQlEpde/Wf8w+um4D8l7uzcahXoaU7qaT7vvE0GoKnbXpU9iYsmVCmA/r16/H5KjHjmA3ffp04W3jUGryfKo6oXQcC+nRLiwqQFFxEVa9V4Cbb3kbF1z4dzkUu3qHqIfFHEr3lQgdKn0mf9bA0bPOoy6LvrIBDXYDqIHtq0LXz0ndwLSB3ah0gp3qECXYvbl4N64aPweXjPkfPPLoaxLsRMdZ6IIqN6iUorQklZSg1KegjKFbFKTxnALFZDrgdQWIsQ5XQs5A/d+d387ezyegToDdipXYM5Fz7E7CvInTsOXNxSgqkWDHz1p1BoltwOMFikqkvhXUDSSw894eKCCjvtMLdiU+TlFwe+w02Hkvl2R1WZ8/UHWYodzmOpTDB1oPWg/0Nrz66qsYNUoOxdJjV1Ag5/3wWtdthPdQClFSUoCSEh/eXLQLV18zB5eOJti9iv2Z3OahGCXFhfDRI8G9vEqKxSR/X3EJfMW+ToRxuSigExH5KEFxdLis47swn0WDWJKXD99ZvHdhIUoKC+Fb/jZ2E+yOPQnzJ0mPXWFxMfKLi1HEbTWE3tMbdtT3YKpvyjZox9Jrtm7dujaP3cknn4yXXnpJeNXo4U7+riodaWfckLiopAjF4gdFMQoL81FYVIh3V+XjpltW4PwL/o7b7ngV73+4HYWFhSgq4vOLRVmynJLb8mDSrc5rcnvRuumqbjTYJe3gtDF11ZiGSvx4sBs3bhzy8/Pbhpi6957szArhKylAcRTsrhr3Bi4Z8wwe/ukr2BcFu+Ji1WlKr4ivS/bJZ3Qmndl1Z/cP9OvJ368j2K3ELhfYbVn4FiTYETRiQNe98k6ej8GbHss+Bv0cDk0b2Pkk2NFzV0CwK5Rgd+OtK3DOhX/HLXe2Bzv+6KEe28q0S/VkKJaNfqfBW6/SX3YZ7MS0aB1oG4jZAL0Nr7zySpvHjmCXl5fX5ononq6KUFxcgJLifBQVl2DBop24atxscFXsQ4++jL372UkVobCYnkHCnQQ84ZnQdTQtbRQXwFCK6X0tKEDJsrexc+L1WHzsiVGP3ZsoKCpCXlGhALySomJQulfeQ/E+2jC3IpFC2/zoo48wadIkuSo26rEjlFGS6619OtzepLCkEEVCipBXkCc85CtX5eGGW5bj7Iv+hpvufAWrPvhUnC8sLEAJPYK6bFLoeCjan36n5HWqvW402OlOUzcOcTagwG7EiBGiw+o9sHs9CnbTJdgVF4mJ4xrs2jdSXhuzzuKlBDsunligwS61DhWQqR8f7cHuK1/5ihiK1WDXO/abumz0M7V+YjaQwU5Mi9aBtoGYDbBj4uo+N9jl5uYKLwSvdU9XvC8fxUV5KCwqxoK3duDKcbNx0Zj/xkOPTseefcVi7hCHoeQ+XrLz5ArA7j1P3xevt8IignMRivLzhRQvW4EdE6Zh0bEnYt7E6/DxgoXILyxEbmGB8NwVFxaBEp/Ogfs/bbigTWiba9eubfPYEexefPFF4VXjnNTkemqfDlfBFhQXCG91YXEhcvNzxdSHt9/NxQ23LMPZF/4VP75jOla9v02cLyjIRzE9grpsUuhY221y+xv6utFgp8FWNw5xNtC3YMehWA12fdEIa7BLR4dGKJMSD3ZcPKHBLh061mn0RXswlJ+hwS6uUx/Kha3fzVuD2bdg94wGuz6qgxrsvNm/13ZCg1169elV7zqe1ntnNpDBTkyL1oG2gZgNcBjJPRR7zTXXICcnp22IqXu6KkBhYR6KCnNRUFiE+W/uwJXXvI6LxjyDBx+Zjt175fy6/EIO+crhWDnsFctX956r71d6KygsBKUwP09I0dLlYij2rWNPxFwOxc5fiPyCAuQU5Ish2aKCQlDU/Tpsrwt2Lu6hWOWx4wpySnJ9sS7wuhROP8gvykeBkALk5OWI+1e8k4Mf3rIM37pADsW++95WcT4/Pw9FHOrVZZNCx+3LKnlZ6HhDUTca7DTY6sYhzgbiwW7s2LE9BDvVkXUGdgQKBXYK7nTDm66GNwZ2+SjkPDsBdtfjrWNPwpxJ12Ez59hpsPPcHvQV2J19wV9x0x3TocFOtwXpaguGejoZ7MS0aB1oG4jZAL0NL7/8ctviiauvvhpZWVliyxNe67queA+3cMhFYUEO8gsKMe/N7bjymlm4aPSf8OAjL2PXHnqT8pFXQM9gnvDuSY9GLF9df66+160zQhulIC9PSOGS5dg+YZoEu4nXYdP8BcjLz0d2fh7yCgpQmC/FnYY+jtkUO8c1a9Zg4sSJbdudvPDCC6KecHug5LpS9YFx8pBfkIe8wjzkC8lHdm62SGP5ymzccPNSfPuCv+Cm21/Gu+9tiaadK8Cc5ZP8Gfqa1s2BawMa7DTY6sYxzgYIb9xBX62KpccuMzNTdCrdbyzZmXUOdvTYSQhkp8d7KAduA5XOd28Du9xcFHCV85Jl2D7hOnAods7Eqdg8T4EdAVuDXWe67wuw+9FNS3HOBX/BzbfTY6fBrrMy0dd1W0kb0GCnO00NDnE2EA929NilB+zyUFiQm9JjR69FDOg01KWzo+oAdotjYDe3Dew4xytflFFhPufj6Y4iWRn0Fthl5WYjNy8PK1Zm48abluLcC/6CWwTYbUVebh7y27yBhSgoUKLLKVk56fMHnm1ksBPTonWgbSBmAxxGivfY7d+/H9zLrmd6ykVBfg7y8gswd+GnuOKambho9H/jgYdfws7dHCakp6inz4i9R8/yOvTS4TArJT8nR0jBoqXYPm4K3jr2BMydMAWb585Hbl4+cnLzkZfHIVslQ08X6bANAsPq1as7DMWynqSuK3nIF3vV0dZzkZefi9yCXGH7/OpEZk4WcnJzseLtLPzopiU49/y/4JZbp+Pdd7cgNycXeW31sAD5+Up0GaWjTHUaQ8OONNhpsO0hrAyNiuBu0BTYHXzwwWLuEIdiNdgN/nLuCHZLomB3vAC7TSnArkC3Ex3aid4Cu6ycLAGGy9/Owg03a7Bzt036ePC3Q31RhhnsxLRoHWgbiNkAvQ3caNUNdvv27RMrY3umpxzk53GYKR9zF2zDFWNn4sKox27HLnqT8pBLj56uk72iAw7vUfKys4XkL1qMT8dLj92cCVOwce485OTmITsnV5RRfm4+pMjhP10usTpCXbCD+vDDD9t57J5//nlRT7g9UHJ95SIvj9el5OblICc/R9g+vzqRmZ0p0li2IhM33LQY377gf3HzbS9j5bufICc7B7ltadOzqqR93pI/W8fTuhn6NqDBTneiKRrgoV8BEjVyPQM71dGo0K1DDXaJ9N1X5zqC3RIBdm8eewLemDAVG+fO12DXhfYwHuz4SbHnnnsurWD3wyjY/ViBXY4Gu76qL/o57rZ7cB1rsOtCQ6YNfXAZd3fLi2DH7U5GjRqFYcOGgRsUc7sTeiHYmaVOVwGdO1R602CXWndKT70TxsAuB/nZOchfRLCbioWfOwGzJ16HDW1gR8+e8tYx1B67ROXGuvDRRx9h8uTJYsrCqaeeCm53wnqSLo/df9y0GN+68H9x4+0v4+13P0F2u7QT1bHesZ1E76/P9b2u2TYr0fpPrv8MpSQdxgxG6+LA1gU7JXoeCHUZGRm44oorsGPHDtFZZWdnt3VcjNfRVvKQm5tMspGXy4nheZgzXw3F/hceeOhFbN9JmMhFDlcEuhovfZw+W+SEfEpuVjbyKG8txtbxU7Hgcyfg9YlTsX7uPDEMm5XNeHnIy1EiJ+zrsmhfFuxYV65cCa4aZz054YQT8M9//hOsI5Tk+mK94XUptPnsvGzkCMnB/qz94v4lK/bjBzctwjcv+DNuuO1lrHjnY2S1S9tdz9rnLfmzdbzBphsvAMd3StweH5jlrcFOd6IpGuADr1KwcWCntHDhQpx55pmiwzrllFPw97//XZzfu3dvO7Dr2Ji4O5v4YzfYbcUVY2fgwtF/bA92nIOnbbJXdJAY7KYkADt6nBTUMdRgl8wmf/Ob3+Dzn/+8qCdXXXUVFi1aJMquY71wtyU9AzvCncyPu36509fHycprsJxX9kOoY5653dSePXuwfft2fPrpp0J27tzZtqhNwd9geb/ezmcGFahF60DbgLQBNiC7d+8W38C84YYbRId1zDHH4MEHHxT1hEOyymunPBOJdcdfkEqUfWUhNydTeIXemL8Fl1/9Ci685D/xk4dewKc76CXKQTY9erpO9ooOOIwnhvIys5BLeWsxtoy7Fgs+dzxenzAV69+YJzxCmVn0ONGzl4tchtEJ+7pcpIeadYDCjvbWW29t28j7gQceEB0uO63UuqLXm3YuJTsnC1m5WcL2+dWJfZn7RPpLlu/DD368CN86/8/40W0vYsXKTciMPlumr+pXZ89T9U+HqctlYOhHQQ/b4i1btoi2+P333xcLdfilEyXcaueDDz4QW+5s2LABBD3lKXa30/3xzqn7BqlnFUeFneVZxYsP+X7xdU6Dne5EO2mEB0Zl76vKycql4O5Pf/oTDj/8cAwfPhz8wPlTTz3VVoFUJWQlS5y3RJ1ODOxmz/8El109Hedf8jTuf/A5CXY52eBWD4nTO7DKoTd0EAO7TORmZiL3rUXYMm4y5h97HGaNn4J1AuyysF/Au4I6CXaJ8tOWXo60gfjGVXVQie4dbOfUu9DuldBb98UvflFMWTjxxBPx7LPPimvJ64SyYe9g98MfL8K3z/8zfnzrC3h75abos+Wq2dgPJw12g82ekuWXdkb72rRpUxu0Ee74Y5tbTrFtVsL/uVsBvXgEO8IfoY/TZpQNqjDZ83pyXtWJRCHTdZ+Pf477mjpW93iJq+5hGB+f/2uw02CX0DASGcuBco6NARuXd955B1OmTMFBBx0kFlIQ7p588klRYXmdDQzjuiW1jtqD3ZirXhFg95OHXGCXLT2C7jT1cXsdd6aPZGXQBmKZmchRYDd+MuZ97njMnDAFH82hxy4L+wgv3PKEnrpsBSPtQ6aVJTyA2aDHKSdHDQ/GgL6zxjdZPgfaefUeSu+cjvD444/juOOOE3WD8+vo3V67dm0UvDr7cZIa7PZm7hOeuaXL9+GGHy/COef9GTe5wC47KxO5SX9QtS+ngaZLnZ/E5aNsjMOsBDQuytm1a5doY9nWKr0pG1Qh7+Mx4xD+CITvvfce1q9fL+7ldXVvqlA9vzuhSlfliXkhdNKjTXHnn3H5DF5nXpnPdevWCeE7b9u2rV18xmV9U3EJsLyHsnHjxrZ3jM93hsqMDrvWeWh9DW19EdrYsMycORNnnXWW2NPusMMOA1f+/fKXvxQND21AVWpvIePLe+bM/wSjr34V51/yezz0yPPYtVs1eF1NU92nQ29lkIOc7CzksLNYtBibJ0zG7M9+Aa9NuBbr5s4XQ7UENs9pHWBxOfR11113CU8dPdlcYPSd73wHb7/9dsIfOonbSf544Y8iKVnZmcjMyUSWkCzs2b8X+zMzsWTZXtxw41s497z/wS23vIC3396EzP2ZyMrcL8sv7kdV4mcN7XZqKLyzAh8FZfTQ0ROn2lcv78j6ynhst3kvPXcERIKVupYoHfVs1d7T20e4omzduhWffPKJgCpCFKGK8EUQ448YDgVTuJcj6wWfp4T/EzDfffddEUe9j3on3s/7mK6CNKa7atWqdnlm/hiP8RXUMR51xYVLdD6o/LpDDXa6cWjncUpk/AfiOVYoVnY2MgQ5Qh07shEjRuCoo47Cueeei6effhoff/yxiMN4ncnWLR9j27aPsXXbLrzw6icYM/ZVXHjpf+Ge+5/H2nV78On2HaIx2bqVjYpsWNi4aOm6DtyNnDreysaajfYnn2D3tm3IeWMOtlw9AfOO+RJeHTsRa155DTu3bcOmLVtkvG3b8Gm0kVdptA+3Yus2xo3K1i2irFSc+HJT572E8ffG/+8lDRUn/t6u/k8vCjuwX//61zjnnHNwxBFHtHnqvva1r+Hf//5321CZt7ZCg503PQ19KFU/oNRQKodV2fYq4FJ6UvHiQ3VdhbyPx/SIEYC8wB3TVM9XsMaQcEigYjpKCGKbN28WwvaedYwwSCcAhSBJiFNCbxvzoOb/8VnMG8FPeSTZz1B4nrBGaGN8vgvTZ1x6I1U8FbIeM22VZwKgkgylRB3G5o5oXWhd0AZUZWPlouduwoQJYjGFGpo9+uijwblFJ510kkdhXMqZOP1rt+DCMS9i9BV/xXkX3IOTvnwuTjrpyx7T8fo8HS9R2Xz5xBPx1ZNOwv877njM/tKJ+OD0M/Hnb3wbk7/6dZx60kk40XN5Hjj6Pf7448UPGu7tyB84HH6dOnUqFixYIBZMsCNjffHWdjLe/jbJzNqP/dn7kSkkE7v37cG+/fuxeOke/MeNb+Lb5z2Dm255Hive3ig6v8z9+5DNaRCu+X7enqvbtYGmJ0IYQYaAQqhT0MJ88poKFawRcAg9FEKT+7qKz3Oq7aaHjWnzPl53x1H3EqgIRHy+AjIV8loyUXnldaZPUGMaBD7+4CcAEhjpzeY19TzGIayp/Kt6w3R4nvml507phWnxmvu9+B68T+UzPtRgpxsHYTA0Gi0ddaAqHSsOt3LgsBM9FmqPO3ZwXZfP4Ohjp+DC0S/gsqv+hjO/cTMyMo7tRjrdeba+h+U1IiMDozOG4aUjj8Hq07+B/z79TJx71GdxULfK88DRKe3+G9/4Bp555hnR8bBzYqej6om3NiQ12O3Zt0ekKcDux2/i7POfwY23PI/lUbDbr8Aus2N99fZ8fV9/6skNV/QGc8iSoTtPtCcFYrxG7xnjUQg+DAk/BDICEG3QnS7T4v88zzj0vLENTxSHz2Ka7uFOAiH/53MJW3wG71fpqrwxfZUfPodxGSpvH9Mg6Kk6wvuYlsqP+515rACNXsBly5aJtFUdU89mSNhTz2Bc9zU+Q4OdBpp2FYoGoqWjDlgx+auMLvkZM2bgkUcewdlnn41DDz0Uxx57rPBmcIg2Xo488kjE5DM48sjDcPgRJ+KLJ/wYF1/+Ei6/6m/49rl34rPHfg1HHnkUjhRpfBZHHUU5OioyXZWO+xnqnA7dek59fMyRR+KEww7D1EMPw8zPH4f3T/s6nvnaN3DVF47D5484AkcfcwyO+exncexRR+OYo47C0W3leiSOOorymWio/mcYK3uWhft/Hg+28nHnnzbOzYe5tcnvf/97zJ07V3ggWCdUh9VbYPeDH7+Jb17wDG649Xks02A3ZNpmwgdthyDk9kipvkddJwAR4jgPjQDDoU6CDoVeMM6BI0gxDocm4+2Q6fAeXufIi0rfHTIOr7FtJ9DRy8YhVwIY02Qe+Aw+k/cxvgoJYgQ73s/rCsxU3VD1g/EVrDI9evN4zZ0WAZbXCGxMc968eeL93O/E+BTqjNc5h0/lS6XP6xn8R4vWgbaBzm2AlZaViKIaAjZMnOPAit+5cC+m9/D+B2vw7L9XYczV03HR6D/izrufxfK3ZePReRpenqPjpNQjt0V47z1s/PdzWHfFWCw49kt47erxWPrsv/DhBx/gg2hZrvZUpkNf17Rxdjb0PLBzdXck3Ws36OHj0K2U/Zn7sC9rH/YL2Y/de3eLDnLRkt34/o0L8c3zn8ENtzyHpSs2RDvOvcji0NT+zuts9/Kn0+1NvRFoCDqEJwIMh1UVAKmQP6LpkeN12hzbXpUnxlHxGNIeCToc8mSa7rjqHoIU2wSmy+vqfnWd//N8vPA8gYttPO/l/8y7EsYnNDKPvEZxp6mOVcjrbghV55kezzOPSi98Hz5TPYuhSp/PJdjy3ZkG/2fIOKyrGuw02LYZojIyHSZv2FXFUpXIXem6cvzGvM0YM/YlXHDJU3jg4X9j+85YY9GVdHTcHujtzUXYPG4y5h7zJcycMBVr35jbrhHVum2v2/S1C97B7gc3LsS3zn8GP0oEdrrtHpRtN+sVgYTg5vbWqTZVwRK9Z4QXd5vLOOp/VT/VOc5dIwzRi6fiKJtVafIHefw1FSdRyGcQ7BQU8l71XIYq3Xiw47X49HiOEMsfSvHARn3wGbzONJke34WwRz3xWA3pxufB/RzGpxcvg5G0aB1oG+gLG9iLzP2cGJ6JmXM2YczVUbB78N/Ysi0T+zP3Y2/mXuzjdg9C5C9LXTbpKRtOyKdk8lcuZeGb2DzuWsw95njMGDcFq2f9//bO/LmqI8vz+hfsnonqquqemB8moiOqp4wQxhjMDi6DcHdE9bRXXNM95QhX2S7bXZ6e7i5PtW3w7ipjrSxCTwghDIjNG8IuwCCBpLfracH/zrf7k/cdvdTlbcJaMMofTmTezJMnz83Me99HJ++96nc31Sn3F/23+nbak5v8oJQTfAvzNLc1ynjZGo/Wu1v3rP1vp1WYjCIRZ84X9PhTA7qv6T099YtOffr5sAOCqSnY5h5MAAAgAElEQVSewQtjPrcxn59raD76BESAFIvGcWx2ydtbnvaCBKDj16MDGAFyFrEiRQ+7gI0PWtTRnm1OtnTt2GxWS+mL7VhgDMiM+4ItYMrvr5I9bGHjiy++0Pnz590zdDxHx/GZM2ec2O4PUTsglPMBLEnPnfvPzzONjjofsIXQFynbzdgiWse4BbALYDtz0VRakKF8vm6KcbDr0moidi92KJUG7KY19e3kDNxFgFe6qYV5+G7zYGB3c3JS3yJFsDt+74/Us/1RfdPXL6BucootGQ/qivnyYFf6UQrzU+/8VAe78cmCJqemdPZ8QU88NaDGpvf0dBmwYz7jY16uLK4Tjm8dt8UaEwMSIItn2QAS65s6YAYwA2YoB6QMpgxkaAdMWXQKCAKwEHSxTbTPbBvIAUWAk0UBrV/rI55aO6CKvqqBHZAZbx8/xn8DO+wZxAFj+Mwzfua7RR7NB3T5FIoPkNj3z4Fxwy5tAtiVuTnYYIV06W4Ad+fYl8DuaP+I1m/p0gNr3tSLL3Z6YDfhwI4IRhS9K128d+eYLN4a88HOwd3AaY1s26n+e36oI9sf1dW+45qavnkbYBfgbm5rsz6wO+eB3e4i2AF8ROymb0676Kvfr81vgLvFu6b88a83D3iw7Qgw+XAC+AA5AI5BmQ9H1AM+wAvghw4gCPAQieMYHerQAYI4xgYpukTeiGiZr5TXEtphrxzY0Sd12Kxlh3oAkK1VfGMcKgnjA4hSz0eI423wH3ukdn42rm4r1h+4kL/14ckwJmFM5m8NTOnm9ISDh97+G1q/+bBWr3lTL7zYoWSKbcIpTd0saOrmpKZuTkQyXXrTav78WJ5zSjQOmeYjokQKTg3oxrZmHbvnz5XY1qwrvcc1NTWtiSlekrmpm5M3dZO0KNPT3ESryfIc17mvS9Z0SaamWfclyU+Ma2JqUmfPjevJp06pceW72v2LDn362ZAmJifdyxWuTexhd5tfN8exurn7GOZyvsfMIAaoMTizPgAUwIlyQMrKrQ3HROEAHMDNL+eYCBdvsVKOLtu8PL9nx9j3oQodyvAFmES/nACCbJUiBmPmG+0BO+rwC10EO5a3lDLOC3102Ta1SCP28NPGAJCzDxVzXra9aj5bSvs4bGIf+G0wJ0MaLuSwBhZ6DcwV7CbFD1iYl/mZF/vhnwV225vVf+8P1T0L7PhLOoDdwq27EtQBePWA3dO/6ND5AHZ3xb2ASB1wY9uXBjUcA3Z+uYEZL0QQieJ5N1uXVscx5f72JRE8gMgHH4u8AWi0AaSIjCHomxAx9AWgpH/68/s0P6iztmwTxwXgZCuVc8Yfi/LhH3nsYBd/7DzsLV/84HlC6tFFGB/A8OTJk+65O/o3HVJ0GszZkFYOi4axCWMzP2tgQtNTPD80rd5j17V+8yGtXvOGXnihXckk0aRJTU6Pa3J6QpPThSidKn23aX58WL5zyTae28qbKGhqoqDpk0Ts2Ir9kQ5v26VLvf0uIjQ+wQ2UyN5sIZpXXZbv2M5tbbKmSzI5xbovSa6QV2FyQmfO5vXEkyddxO7pZ9p1/tNrKvCFf/cM3mQ0l952ls1vtF0b5mJuc7Kw42UQRAq0GMDho8ENgBIvp56IHFExXh7gpQMAzqJftLXzJIKFHuCDLaJkQJxBD8BFBI1tU+sTWMQfAyLKywl9GIBZf5aW04+XAWxE4gwq8QVgNN/Mvo0Bep9++ql7oWJgYEAI363j3O15O0CRY8aMj+dTj6AbwM67MdhEhXRhL/LlOb7cgAqanhoPYLdE15z98AN1Edid0o1tOxzYdW/bpcu3gN2UpieLskQ+353XSgnqALwAdsvjfmtwZ/ACgBkAUeeX27oH4IAXoltE+oA3IIaPZFv0Dl2zQ+QMfWwBbbZti31ACKAyXco4BgZpw/anbYNaHhtEx4jqWbTNfKM9toBF9K0NNnzBBpAGkAFytLNIoYEddijHb+yQ0q/ZJMVP/AVMaecL9j7//HN3HvQdwC7csGf+4rEFG9L5vtHaD9l4ALslvN5uAbsTp3R92w4du+dH8sEuX+Cvdg/qyC+h33ff9WjXQ5TGwS5fiKIsfsRud4jY3RX3aeAFIPMjc6xvyoE44AsY4xiAAbiAGSDGgIxyIndsRZaDO0AL+8AOUTvsUQbwGEzaNYVNytAhtTzHCH0Bi7Qlioa+tcVHYA/oYrvV2pRLOTfOAXv4hP/Yjdujf/o6ffq0s8uxD3A2BuaDtSfFF9NtMMWQlg/BhnEJ4zI/a4Ab07imJvOamJxSb9+w1m8+6LZin3+hTWNjbBNOaGIqr4mpgiameIC8oInJ0g1tfvxYvvPpHrxnq4WtGP6J+CenNLylWUcd2DXr0pE+t9WXG49ukFM82+JkUlMVtmjCnNzOemJNl4Q1zn+bMMmN59yP1OkzOT3x5Ak1rnxHTz/TpvPnr2q8UNA4L1fQJjYnNr/x8jBHtzNHC9MGIAF8iGLFt1MBE8qJVpEH6ohyAUO0M2ghTxnffgOAzA71zDUpYEeEi/bkEdPz14MPSJRzHK/n7VT8MsiyevMDECtn2/QsRZ9tX+AVIDV/rZ6UMs4dmAX+iFRyDpbGt43NfyDR9NANYBe7OfiDHPILc3Evz3HlplMCuyPVwG4ygN1CrBH74Z8Fdlub1XfPX7iXJy73GthF2xwB7Bbq+i9BHYBXArvoD5lcPlsEO3vG7h099UybzhXBruCBnUGcza2lC7F+gs35WQ9AmQFcHG6IsvHsGZCCWPSLNow/+ghAQx1bsmzNkqfM5gg4AuaIpgFRHFtdvan1Uw/Y0Uctu/jHdjJbrJwjPvttqOc8gTfG4fjx406OHTvm0kQiMesFDNraOfP8YW9vr/r7+5002ECFdPaedRiPMB7zuwaIAuU1OZFTYWJSiaPDWrfpoO5f87qef75No6PcNPlhy2piclyFibzcD9hEKbw+v/4sv/l1D97zw8AD1WyrELHbuktH7/mxurc36/KRPhcRImJXKExo0pfYMy1hLr7L+mFN80MbCXleiHAyUVAml1V+fFwDAzk9/vgJrVj5jp7a3aqz5/mqPnNTiF6imJh01xLXk80taZibO38MABc+y2EvNzBngArgQwTMom1soQJCgAtviLq5Z/6L245E94AZni8DlLBjEEdKdIz2RMCsvN71YfqAHT5hnzJrj7/4Dzzit5VXS2lPdI1II+Bq9qwv7ACqgC8RO54pJBoIOFJH3trQDz5wTDljARTiZwC7cCOoa0FWW6yhrp4b6Wyw6+6LwG7Vmn/Xr59vnQV2k2zXTvBsBQ/Jlm4kYZzrGefKOvbjXw7sEtubdcUHO96MDWC3QPeG8mDHFmueH6msgV1ejz9+UvetfEdPOrBjW674o17woa4EduEaqbz+75SxAUZ4Jg3oAkjML8rJAzyAHfVE3QAW4IoXEOzbbT7cAEp9fX1u69a2Sw2USImOAUnAGfV+W+u7XGo2aoEddm1rtZwdvwybCOfIlikROur9vmxcAEZAjTr0rK3ZY7x8QcfOP4BdALuZC8sWTEgX4uY4G+wsYgfY/er5Vo34EbuJAHYLsQZLYJfTRD6nyU9OanjbLvXd+xcKYLcQa76SzQpgN1kQ/04sk8u5H7IoYlcB7PgxLBOxW4h1E2xWmsfbLwdSACIDNcbYIIU6oIZonR+hArCIvpGiQxuDHUDp6NGjM5E7s4UOwIMdntlD/C3QanOLbezQHxG0+YrYYRN/iViWAzt7no8xYKuZl0ROnToltmR58cLamO/YI2KJLp87Qb/BBiakxRB/kajDeITxmN81wF9cOU0UshovTChxdEhrNx0QYPfc8y26McoPVV7jEzwPQsgf4a/L0l9q8+vP8ptf9+A91zfPcOWzmvjkhIa2NusoYLetWZd7jrotwGx+3M3RBC9RmIT7wsyP6Hdfh6xpIhWRkB8v5MV/nMhNjCudyyqXz7ut2MceO6EVjW/ryd0tOnPuivLMTTF6wXVUkoLbRv/uvi2/62Kxx8zmj61VIIZoF2U+sABRwAqRO4uG4SfROSJ38UgWbQHBI0eOuJcqfPgzACSahT2ACftWXu380SG6CIQCh+Y7bajDJrBoL3xUs0WdnSNgh7CVazaxh99EKYkycp4I0UZStmgNBs2W9Wdbt9YmgF24Yc/jDTvcFO1CuzWNg901rd3cWQS71gB2i3AdzoBdLqtCzsBuVwC7RRj72ddDebAbL4w7uAPs+MEjYvfYYye1opGt2I8D2C36PC3s/RygAZgAPPIGPbZWgCbgx96OBbBYF5QBfQAfupSR0p46nrkjekU7nq0zPQMn3qY18LO+yqXmz0KDnflu/gGfnB/jAoByfiY2TnF/KTcd0gZTDGm0sMI4hHFYmDXAX2ZZFcYzyo8X1N17TWs37deqNb/Xc79u0fURIg455Qspp4fu+DhbUtFfdAvj0/Kaax7IR8azGSeF45/oWjFi171tpy4ljrpIUSaXd3NUyI9rRoo/PGEe5mPNsKZvlXw+536cUum0srmcTp7K6u8fO6n7Gt/VE7tbdfrsZeWYm2KUg+uoJMW5DfM0A0l38lplDoEToIkoE6n5Szn1vGDB82ZEo4iyATv2QgHlABAvFFg7UtoR1eNlCwCPrUny6AKRtKetbav6beN585HtYiARQKTM9PATO9gmgmjl1VKzybkhwKvpY4/zwZ697YuvNga2de37YHkifIwTOqQB7MKNYGZh2QIL6Xz8eMVtcEMogR1bsQ9t7tKqNa/r1y+0aGQMsMsrXyDcb0BnP35xW+H4dtboDNjlMhrPZVQCu79UALvFXFO2rv20FHEwsBsYyOvvHz/lwO6p3e06c/aK+yEEAJn/EtQBeIvpf+jrdq6/Sm14iQC4s+1M0wOkADpejOD5MiJtiEWy2LIE9oAhg0FABwG4ACf0efYOoKMdffgwZX2VS7GDXaJ++GGRP8pMaEfd7YAd5219+PYoM5AlAsl52Bix3RxvQ1vGD6BDF50AduGGEMBuUdbAbLA7mLii+x9q16o1e/V/nm3R5Su5ItjxvElpa4GLuNxNJ5TN/ce1BHbRVmwEdjvV675jFyJ2i7emfKAjOhpBGm+8kk/zXwDyeR09ltTP/46I3Xv6X4/9QacG+AfxbE0RzY6iqgZ3i+f73Ndd8K3ymHF/Q+y/Mdizc8AK4wa0ATX2f1CJnlkbUiAGaLNPp9COctqSAnK8cIFYdM/a1zMv2MMGfdCXL0AU0TTqDC5r2aRvbNozdAZtABznaSk2AUrzlRQwNT9oZ8LYGeCafoNlQlraxw5jEcZi/tcA20wZjecjcDt9LqmfP3lc/7Px9/rZI2+ovWPA/WhlsilZRMJuTvPvy/KcX2AByRe3Ysf7P9HVrTt15N4fq2vbTn2d6HV/zaez/GuhvMZ98Z5zCfPxXdcP14IJczJeEt5gzI0rlR3Xv77Wr3X88bP6ff32//bpT5fH3DWSy2Vce79dmJPvOidL254oGqDCtimAwzFRN15Y4Hk4IlJE7oAb5trujeixjQvYoAN4oW9ROVLK/a1UWyvUWb5Sav0AYgCUvzVKhAzBp3psWR/YRJ/zNRvxlDHg/NEzYSwAWF/X/GH72fTop8EOQloawDAWYSzmfw1wkWaUz6Xcj9OfruT0yr98pp827tHGjR/qtd/3KpnJu7psFh1+vDiOIAPQqCzf3/niWSpk/sf7VpszfWXSyiPHjuubbTuU+LMf6eDWHbrY3eO+oZbKZpxP+WxOJvX5V3mOsm7+bvWpPruV2rGmqkmldndKecl3xiebzyqZTbo5uPhVXs8+16fVD7Rozdp3ta/1tDIOuKPrKJvLyrWh3YKM7Z0yRsvHD0CGKBXRNZ4zYzsSAcqAM56ZA2wMeAyUuIYoA7DQJaplMMcx27HYNT1LzU491yC6lcTs1WPHdPG9kj0rN3ul34HoPK3eT80uKfoB7BbpR8UmKaTL50Z161zbj1JOo6m8Og/9SVu2tGr16g/18MOva+87XeLBffejlU0ryw9ZNl+X+D9ylfIztqpBYrG/Sjb88sqgWfS5+KPrt6mWd/bov5x/c/HLxixmx/rOZTJC8v3HdWX7Dh3+sx9q/7YS2CW5ifOQvtmp5JNn32zXSsuem2dnWdRno7F10MzWahFOs/mMg7s/Xc7qlVd7tWHzB2pc9b4ee+KgTg5ccXX8V4oI6viDIIK6xfrD4NbreTnfy+b/3H1QIZoFnPH9toGBAQd7tj1p8+DrE82yY56FA+TY1iSCR546a3c7Ke3po5zM1bb5Wc6WlVWyWcmPuH6DdRLSykQexiaMzfytAW4OWaUzOV28mNE/vTKo1avatebBD7Vpy2va+3bCRYuyOaJG/HsYJFVT2MLN5KrIjA2zWSlNur5q2suhV8lGqTyTS1b3a8bnUpvyduv0q8p5ZrJjQrKZG8pmxpQ71qfL2x/W4f/yA3Vu26YL3YeVzo5pLHO9qIeu7xc+lJeqYz9zjkSj/HErb6tSH6XyMWVzo/XJrDm63f7mt10um1QkY8plR5TNjETjmsvo68tJvfDyQa3b8J7uf+CPLn37/XMavp5ROptSOpt2Eb1MNqNMLiOXEmGtElEJdd+f+zdgA3iRGqDxjJsBD6nNp19WK29taqVm3+APfSsr1xa9uZRXsmf+m614n34/ft7042kAu3BDKLsw4wslHM/XzTG6MaUyWY2O5XR6IKXHHzulv/7JXq1d+562bP1/+rfX2vTlIK/Cc5NLF1Py5WQuf4lGEcPydsx2vfbqsYXNeuzVY6seOxZFqGWPN+OSyh07pivbf6bEf/2BDmzfrsHEYWVzfGqDZ7lsPJYireU/PrEu6pWlOIdKfXJu8fPLamQso2MnL+mXv2rT2g171LjqA61d/0e9/d55DV3PKMn/wnRgV4I5B3ZFuAv3p/m6P915dgxkLLW5jsOQld9Oim0EmwAlNixPanVWRr2VWVs/9duYnrUxPTtG1xfqeRnDbPj6lCO09cVvT3kAu9gA+YMV8rMXTxiP+RoPLuQxpTMpXb+e08f7Lunh7Qe0elWLHlr3odav/zf97d++qj17OvXZ51d1YXBYXw5ec+mFwSGX/8IdDxXLruvLi7XlwuB1DToZ1uBgeUGnHlvooBvJcNGPWHpxuKatC/XYGcRu1NeXF2/oixm5ri8ulsT5VM3exWHR3+CFqxr6aljZzh5989AWHbn3B+rYsF2f7zuga1/f0GeDw/qccXD9Fttg9+INDV4cKQr54vm7sedchyrKhYtDGrw4rMFZNsyWpdisR667vum/qnx1XYMmTrce2wutg8833Dr88sKwLl1K6pMTl/X8Sy3asO13WvPQe1qzrk1Nqz/QPz7bp3Pnb2gsndFYJqNUjqhdEewAuhzRu+g43Jvm6950Z9kBWCrNrcFMpfp6ywEne9sVaLJjXsrABv3w4gQvKJCnnq1ivhmHPm/y8uwfW7+8ZMHWLy81sJWMcOz7SgSSNr5/1Buwkbc69CjnpRJ8oM7A03TMR7+PBjsI6WxqDuMRxmPh1kBa6UxSfK8rlc5qbCytzz5L6uXfnFXjfW9o3YMfaOOGvVq37lVt2vRbbdr8sjZueqmibNj0G23Y/JLWVxDqnGx6SRs2YauybEDH9KulVWz49uvxKzq3yj6ZPXzfsDmS9Ztf1kObX3LCec/4XIdfmze9qOaNz+mV+/9OPf+9SX1//ld6/a8265kHn9HPNv5GG7a8qg1bXtbGLS9q45aXtJH85lecbNj0SjR+m19288LcuPlxer/Rxi2VxOyUbJnNUjrbptm+k1I3Fm5sGJ9bpT5fX3JjtnXrb7V566tat/5f9cC6vVq74UM1PbBXa9e/oTf3ntalyymNOqjjpYqseKklneHamS0Ld52Ge+CdPLYADuL7aLDjl9XK04a3UHmWj5ct7APBpPZRYJ7vA9x44xbYQp+XOQAuoM5e8uBFDT4uDOChh9DGfKUvAA0dAz7rn7d+AUYDN0CSz7zQF9/sI7U62th5mW07pi6AXSwMaoMT0nBTW7g1wM0opXR6VOnMDaXT/FWW1YUv0/rdv3yt7VsPalXTH7R69R/U1PSuVjbtdbJi5ZtqXLln5rixaY9WNEZlLs9xVdmr+5qQt7TCyV6taEKi46iO49p2aNeIXyvLyVtaufIt5yc6tew5O85WsV3cZrGvyFd8e1P3Ne2ZJVEfdj6zfWtcuVdOmt5SY9Nbalq5R+saf6enf/JLffDfNqvtxw/q5f/xczX/9Yt64L7X9dOmd/VTN06va8WqN7RiVWSX8Yl8wD7zsMeljU1vOp9WNL2h8kI9flt7xtvys1Ob6zsxjeYSfyuvj/r8Zuze1MpVe7Xy/nfUeP+Hary/VT9pfEdP/2OfPjk17P7YSTmoS2osm1SKiAZglzWoA/L4cSv9wC3c9RruhXfi2MaBBh+BGh965uI39gA5YAqo4xMqJ0+edEAH9J0+fdp9cgUwI4rGN/X49AjwZr4AdLQD5swXqyOljDo+mkxbK6O/9vZ2F+GzyB1lvDxiYGjnYnb9NF7X4Hca8tFfAGEcwjgs/BrgWYlkUdJKjmU0OpLR8HBa5z8d076WIf3Dsye07Wf7tPPRTu1obteOnW3asbNdO5o7tLO5I8rvoKxNO5rrEdp2aseuSB7Z1SlfovIO7djVVlV27mpXc3NnXbITv2v4hk4tezvx2/neXsW36PzQLS/7tbN5v5qbO/Q3O/fpl9t+r71rn9X7Dz6jf9r4ip7a/pYe3dGmRx49qIcf7dDDj7bqkUdb9MiuVtfnI7eMC75E/lBXWdr1yK4ON9Y29qT+2JMvjT9zUOM8d6EzF6lmr/p8x9dDpfOM69163OHWLuf2SHOrmh9t08M7/qinftGj9/dd0YHEiD79MqnRVEZjqYwAu1QmpSTiottpd5xKp1y0O51mW8ok3LMW/p51Z40xAIT4522A45fVytMGoGPrlcgYkTO2UM+ePavjx4+7qBx5ImZE6IA3oIuIGv3TlnqEKB7tgUAEIATg2H71/QAY6QMoxAZ63d3ds0COMtOhPwNK+iOyiK+9vb2uLb5jn3MhghjArhjO9Qc95O+sC/jun4/oBsUFPppMux+10bG0rt1I6crQmL4ZGtPVoTFdKwr5b67NFuqG5iBmK57Wa2N4aExIPfrWR1y3Unlc73aOzXalFJs3ro5o9NINjX51XSOXR3R9aNSdzzdDSX0zPObk2vCYhsoI5SZXh8fcPDFX1QSblexZH/jr5rc478z9UsusNVhmLMx3Ut//K6zRmP9+GWPB2A3f4JmjtJKpjEZSKY2kUxrLJJV0jytEEOcgz8FdEepSGaWRAHazgOHuv1eWfpu4XyL+OX8XsDN4M1AjZWsUCEMAKcCOSB3AdeTIEVdGRA2wAtLQt8+yUIZQj5/mGylRPaJx1PP9PYsS8q/TAEbakOfZP9pST9/0ATACgRZFPHDggPMHeKRtT09PADt/UYR86aIJY7F4YxHdoKIftmQ6IyczEYti5ILoRVHSPEBbRtx2FVtWZcT03c0lnVEGqfQYgtXXk1ayUSyn33L+xMvQq+iPd66z/C/jn51n3H782PVH+5QnBgnF/mb8sX48H60fS9ElH+/Hjk2P1I292fTT+Hl6/c34cheV2ZiwroE6onSjqbSDu9FUUkl+uB3MldY+uiWY8/OLd72Ge+OdMdbRffO7gx3ziS0gC3jjxQdADvgC7gA1oIqoGc/QoYc+dTx3R96uT6J66KODXXdfSKdnInamSzsie0AifZpdnr0jMkfUzSAPG/hjYAcQEhmkLfaATNoBg9gBAhuoCBLGIKyBpV0DyRRgl1KSH7Q0f+HdUNrJsNLpazUllb6mZBWhfsZO6prS8yVFu7Pse33V8st8rtR+xmfPZlXfPX/Mdrk08mtYI+kRjaRHNZYaUTJ5XankNaWSV5WekWtKJ30p1qWuKuVJOnW1NL6+r/E84z7LXuyY+nibSsepIaWrSaV2t1vu1ow/NmXytq7K9sEYlcYplWKskSGlksNKJm8omRxRMjUaXQfuUYW0Ukl+eGvJ0l6/4f75/R1/AIyoGeAG1AFU9rIE0GVbsMAUL0kQNSM6hjDvABb6QBU6bI8SVQOwgENf37ZkAT/ADogj8sZ/2wDMaEcbfAHgsI1/gB19oIM+eezSP7oGiQAexwHsAtgGsL9D1kAEdsCdf5O05/Bqpw4KXaSDaMdsKT3PV9uO6aZTSVUS06knjftS7rgeO3PVKdePlZVs3d5Yl9rXP56uTTKlVDWZmftadn2/q+Vr2VnIen54ykmlPqO1b9dBgKVq8xrq5mt9AE4AHFDFm6psyQJlwBblABTRObY4eb6OfmlDPSAIFAJbROFobyDHs3VE2YA4K7O2tAcEeYYPGGTLFeijH4AOQOM5Otr5YMexgaDVAZsWwSPF/wYjz5BGBB7GIYxDWANJjfGtpRqynMfJ/1GZ2ziklEzWI7Wuw3psoFPLzkLUE9FARotpuWPr1+rsOKRLM2fLd9y5lomSAVJEyAArgA5oI89za0Aaz9TxDB3zA6wBUeixbQqkAXX+fQHQI7KGTSAMsblFD4jj+TjbcqUMcAQgeYaOaB5tKAcAATb6JXpnET7qyBOxo3/ynZ2dAexsoEO6fC/sMPdh7pf3GjC4qietZ62YnTjYWflc0nr6CzrLe/3WP/8GWH4KHAFmgBRgBEABSWxp8vwagEc98Gd1FiUjWgeMEeFDDxsIsAfUEV3DFvNDP4jlDeIM2PCJrVaL2Fk79NGhf+rJ25Yw9sjTBn1soBcidkvyF239CzFcsGGswhoIa2Bh18B8g9Zc7NXSDXO/sHO/vMbXBzo/DwwRQSMKR1SOSByQB6wBZ0AY+pQBbsAV0EcEjcicRdQoZ/sVPbZTaUvEjjn0wc7m1KJ5ABv20TG/KLN2Vmapbe/acTxtiBeE4yhkGsYhjENYA2ENLJ81wIiCN40AAAdYSURBVA9LLZnLeqhlq576ufQXdJfPWr39uQaWfLExo4yIF0KeclIAyiJhVgaMUU494MWxtaPMl1oARnvsmp4BH2XYxRZ5yuN5O/b7Mx8D2BX3vhmQIGEMwhoIayCsgbAGwhq4O9eAD0F+3p9vygEtH6x8XfKmb3kDL78t7U3PAM6O/dRsUEbebPjHVhbXNR0DTTtuMEMhnU3aYTzCeIQ1ENZAWANhDYQ1cPeuAQMiUpNa823whD7wZu0sT3s/b/Wk5Wz7un4e3Xgb+rYy8nFfzH4Au1jo1AYmpHfvxRzmNsxtWANhDYQ1ENaArQGDJY4NmOpJacc2LEBGW45NrL1fbmWk1rdfFs/7OtilntT6M33rg5SyAHYB7GYWmC2ikIYbXlgDYQ2ENRDWwHJaAwCawZMBlEEaIMWHinlRwlLyBlj2jB3HfB4Foa2VM46U0QbhbVrK6AcdbPKCBinCCxyktMEmOpbanMTtc2z+NJjjIS2RdhiLMBZhDYQ1ENZAWANhDSyPNQAQ8XkSPhQMdAFSfO6E79dxjJC3DwrzMWPegOXbd3zaBF3eluXtWvKUY4M3Zy3P27L2pixvy2KTfvlUCXb5fh1v5R49etT99wqO0UePt2yxy6dN6A84BPrwmX6xg++82Us+gJ0XOg0X8fK4iMM8h3kOayCsgbAGwhpgDRABA7r4V2B8jw4YA5j46C9gBcQRPQOYgCsia3wOBbAC2shTDnzRDgEC0fd1gDmgjDL0SdFBnzqDRlI+QoygB8ThH35gF5AD8Ghr39jDFuUGkQ1UImGRh0W+WGvA1lxIo2svjEMYh6VaA1zzS9X3UvRLFKWWLIVfoc+FuwfUmm/qASRgiS1QOwasiIBRBswZ7FEOBAJjlAF2wCAQBgACWIAWNgFFYIzoHuXY5pojsgeokQJtfAAZASZpQ55IHnZt+5aIHH5YZI4+sEc9Kf3gD+UzYFdtYfkXv5+Pt6lWF9fluJq+X+fny9mpVea39/Pxdn6dn4/r1XPst/fz8bbV6uK6HFfT9+v8fDk7tcr89n4+3s6v8/NxPTuuR8d0l3PKhbqczz+c+8L90NUaW1t7XKsmtdosRL35sRC2g82lW1+LPfaso0oCBLHVCazxL8MANqCKf/NlgMUxkTCgDYgCxoAogI46AI5oHWX0Y9cMdqm37VmgC5gDCBGgEX3aoUcd/ROxO3VqwIEdffg2sU3Zl19+4cptLCkHLIFT9Ge2Yk0hpMtnwYe5Ls21XYwhLf2Yh7H4/o9FPdd4fJ5pEy+z43rs1atjNkP6/V9n36c59NcnEISwRQqcAVgWnSOSBnxZRAxoIorGs288B0cUDhhDh7YGaoyFXUPAFpE6omwAGzqAIM/SkdI3YMcxcIlgEz/ox3T88b10+Yq+KD7Dh6/YoJ42X30d2WzghIKEMQhrIKyBsAYWdg1wE65Xwlws7FyE8V2a8a1n/S/G3OAHETVSInGkgBtboQAd0TWiagBXd3e3qyO6h28AHduzHFs0jjbk7fzQA7goI/IH0AF5FpkDBNEFAIE3Azr6PHOGFzPOqL//mAYHL0Q2r17T1av4fF1ffX1Zp8+e1ycnB3Ti5Cld/uYb51+ip0enii9lNECFQcIYhDUQ1kBYA2ENhDUQ1sBSrgG2Qxezf6Ctq6tLBw4cUGtrqxOOOzs71d7e7uTw4cNum9Z0qUO3o6PDQR/+UkY9ebZT7c1WbHz00Ufav3+/k3379unjjz92bekHfev70KEu7d9/QAcOHBT59rZ2HTp4SL3YhNO6u9Xb061DBzr08b4PdPBAq3oS+7W/4yO1t/5Ria4Damv5SAf2d6gBpxGcChLGYKHXwJ261uw6CGl0PwjjcHeMQz3Xc5jru2OuwzzWP49AlT9eiUTC8Y9fDqy1tLQ48OI6AuQAura2NicA2cGDB12eOtr6dmhDH5RRhz75Q4cOqbNzv2tLO2APaW1pVWtLm1o+blVLS5s+3teqfR+1aH/HfvV0dSsBCB4+oO5D7eo+1KrEoRZ17d+nQ537lDjUod7uLvV0damttVUN9Vz4QScAX1gDYQ2ENRDWQFgDYQ3cjWsAAOO8DMwsT0SNMr+eMhPqLG+6cX2gDsFmBJPkD7syA79SvwBmj7oPJ5Q4nNCR7h4dTXSrp+uQjnQdVF/PYR0/dkT9/b063s/nWI7rxInj6j/Wq77ehPqP9qjvSCKA3d24SMM5hZtvWANhDYQ1ENZAWAO3vwaArRJwzYY+G1fADGiLgC2KGFobv8z0I13AjuhetHVr+sCeScKB5mEdtp3URI+6e46rq+eMPmg7rt+9n9A/v92tf347odfeS2jPRwl19JxQ15F+dSV6SluxvhMhX39IN4xVGKuwBsIaCGsgrIGwBu7uNWBwBoj5c23llvp1lqeOPNuwUfQuAjtslQQI7VKi+5B6Dh9SItGlrkS3unr7dfDoOf3/Dz/R7pcPafs/tOrB3S1avbtdq3d3aN0zrdr0vz/U3/zqD3rutU6913FU/wFwEMPVE0IbwAAAAABJRU5ErkJggg==;" vertex="1" parent="1">
          <mxGeometry x="110" y="100" width="420" height="238" as="geometry" />
        </mxCell>
      </root>
    </mxGraphModel>
  </diagram>
</mxfile>
